<svg id="Layer_1" xmlns="http://www.w3.org/2000/svg" xmlns:xlink="http://www.w3.org/1999/xlink" viewBox="0 0 80.5 62.27" style="enable-background:new 0 0 80.5 62.27"><style>.st0{fill:#a0a2a4}.st1{fill:#fff}.st2{fill:#0079c2}.st3{opacity:.3}.st4{opacity:.8;fill:#0079c2}.st5{opacity:.5;fill:#fff}</style><g><path class="st0" d="M35.41 58.84c.16.09.29.2.38.35s.13.31.13.49c0 .2-.05.4-.14.59-.09.19-.24.4-.45.63-.21.23-.5.52-.88.86h1.56l-.06.45H33.8v-.42c.43-.41.75-.74.96-.97s.36-.43.45-.6.13-.33.13-.5-.05-.31-.15-.41c-.1-.1-.24-.15-.41-.15-.15.0-.28.03-.38.08s-.21.15-.32.28l-.36-.28c.14-.18.29-.31.47-.4.18-.09.38-.13.63-.13C35.05 58.71 35.25 58.75 35.41 58.84z"/><path class="st0" d="M38.82 59.17c.2.31.3.75.3 1.32s-.1 1.01-.3 1.32c-.2.31-.49.46-.87.46-.38.0-.67-.15-.87-.46-.2-.31-.3-.75-.3-1.32s.1-1.01.3-1.32c.2-.31.49-.46.87-.46S38.62 58.86 38.82 59.17zM37.5 59.46c-.1.22-.15.56-.15 1.03.0.48.05.82.15 1.04s.25.32.45.32.35-.11.45-.32c.1-.22.15-.56.15-1.04.0-.47-.05-.82-.15-1.03s-.25-.32-.45-.32C37.75 59.13 37.6 59.24 37.5 59.46zM38.18 60.26c.06.06.09.14.09.23.0.09-.03.17-.09.23-.06.06-.14.09-.23.09-.09.0-.17-.03-.23-.09-.06-.06-.09-.14-.09-.23.0-.09.03-.17.09-.23.06-.06.14-.09.23-.09C38.04 60.17 38.12 60.2 38.18 60.26z"/><path class="st1" d="M41.38 58.84c.16.09.29.2.38.35s.13.31.13.49c0 .2-.05.4-.14.59-.09.19-.24.4-.45.63-.21.23-.5.52-.88.86h1.56l-.06.45h-2.13v-.42c.43-.41.75-.74.96-.97s.36-.43.45-.6.13-.33.13-.5-.05-.31-.15-.41c-.1-.1-.24-.15-.41-.15-.15.0-.28.03-.38.08s-.21.15-.32.28l-.36-.28c.14-.18.29-.31.47-.4.18-.09.38-.13.63-.13C41.02 58.71 41.21 58.75 41.38 58.84z"/><path class="st1" d="M44.78 59.17c.2.31.3.75.3 1.32s-.1 1.01-.3 1.32c-.2.31-.49.46-.87.46s-.67-.15-.87-.46c-.2-.31-.3-.75-.3-1.32s.1-1.01.3-1.32c.2-.31.49-.46.87-.46S44.58 58.86 44.78 59.17zM43.46 59.46c-.1.22-.15.56-.15 1.03.0.48.05.82.15 1.04s.25.32.45.32.35-.11.45-.32c.1-.22.15-.56.15-1.04.0-.47-.05-.82-.15-1.03s-.25-.32-.45-.32C43.71 59.13 43.56 59.24 43.46 59.46zM44.15 60.26c.06.06.09.14.09.23.0.09-.03.17-.09.23-.06.06-.14.09-.23.09-.09.0-.17-.03-.23-.09-.06-.06-.09-.14-.09-.23.0-.09.03-.17.09-.23.06-.06.14-.09.23-.09C44.01 60.17 44.08 60.2 44.15 60.26z"/><path class="st1" d="M79.73 22.85c0 12.2-9.89 22.08-22.08 22.08s-22.08-9.89-22.08-22.08c0-12.2 9.89-22.08 22.08-22.08s22.08 9.88 22.08 22.08z"/><path class="st2" d="M57.65 45.58c-12.53.0-22.73-10.2-22.73-22.73S45.12.11 57.65.11s22.73 10.2 22.73 22.73-10.2 22.74-22.73 22.74zm0-43.94c-11.69.0-21.21 9.51-21.21 21.21s9.51 21.21 21.21 21.21 21.21-9.51 21.21-21.21S69.34 1.64 57.65 1.64z"/><ellipse transform="matrix(0.9692 -0.2462 0.2462 0.9692 -4.9289 6.2643)" class="st2" cx="22.59" cy="22.85" rx="22.48" ry="22.48"/><g class="st3"><g><path class="st1" d="M41.83 38.98c-.12-.12-.24-.24-.36-.36-4.13-4.24-6.41-9.84-6.41-15.76.0-6.04 2.35-11.71 6.62-15.97l.72.72c-4.07 4.07-6.32 9.49-6.32 15.25.0 5.66 2.17 11 6.12 15.05.11.12.23.23.35.35L41.83 38.98z"/></g></g><g class="st3"><g><path class="st1" d="M39.03 11.96l-.88-.51c.09-.15.18-.3.27-.45 3.11-5.04 7.98-8.62 13.72-10.06 5.85-1.47 11.93-.58 17.11 2.52l-.52.88c-4.95-2.96-10.75-3.81-16.33-2.4-5.48 1.38-10.14 4.79-13.1 9.61C39.2 11.67 39.11 11.81 39.03 11.96z"/></g></g><g class="st3"><g><path class="st1" d="M78.07 15.89c-1.86-5.45-5.73-9.86-10.9-12.4C62.1 1 56.34.59 50.96 2.34c-.15.05-.31.1-.47.16l-.34-.96c.16-.06.33-.11.49-.17 5.63-1.84 11.66-1.41 16.98 1.2 5.42 2.66 9.47 7.28 11.41 12.99L78.07 15.89z"/></g></g><g class="st3"><g><path class="st1" d="M80.07 25.65l-1.01-.13c.71-5.72-.84-11.37-4.38-15.92-3.47-4.46-8.47-7.35-14.07-8.13-.16-.02-.33-.04-.49-.06l.11-1.01c.17.02.34.04.51.06 5.88.81 11.11 3.84 14.75 8.51C79.19 13.74 80.82 19.66 80.07 25.65z"/></g></g><g class="st3"><g><path class="st1" d="M57.65 45.45c-2.87.0-5.73-.55-8.47-1.66-5.59-2.26-9.97-6.57-12.33-12.12l.94-.4c2.25 5.3 6.43 9.41 11.77 11.57 5.24 2.12 11.01 2.11 16.25-.03.15-.06.3-.13.45-.19l.41.93c-.16.07-.32.14-.48.2C63.45 44.88 60.55 45.45 57.65 45.45z"/></g></g><g class="st3"><g><path class="st1" d="M59.37 45.37l-.08-1.02c5.74-.44 10.97-3.09 14.73-7.46 3.68-4.29 5.51-9.76 5.16-15.41-.01-.16-.02-.33-.04-.49l1.02-.1c.02.17.03.35.04.52.37 5.91-1.54 11.64-5.4 16.14C70.87 42.14 65.39 44.91 59.37 45.37z"/></g></g><g class="st3"><g><path class="st1" d="M22.58 45.01c-3.25.0-6.49-.72-9.51-2.16C7.73 40.3 3.69 35.83 1.72 30.26l.96-.34c1.89 5.32 5.73 9.58 10.83 12.01 5 2.38 10.64 2.71 15.89.93.15-.05.3-.11.45-.16l.36.96c-.16.06-.32.12-.48.17C27.39 44.61 24.98 45.01 22.58 45.01z"/></g></g><g class="st3"><g><path class="st1" d="M4.28 35.31c-.1-.14-.19-.28-.28-.42C.84 30.01-.27 24.19.87 18.5c1.16-5.8 4.52-10.8 9.44-14.08l.57.85c-4.7 3.13-7.89 7.9-9 13.43-1.09 5.43-.03 10.98 2.98 15.64.09.13.18.27.27.4L4.28 35.31z"/></g></g><g class="st3"><g><path class="st1" d="M1.58 20.61l-1.02-.1C.58 20.34.6 20.17.62 20 1.37 14.24 4.29 9.08 8.84 5.48c4.64-3.67 10.43-5.32 16.31-4.63l-.12 1.01C19.43 1.2 13.9 2.77 9.48 6.28c-4.34 3.44-7.13 8.36-7.84 13.85C1.61 20.29 1.59 20.45 1.58 20.61z"/></g></g><g class="st3"><g><path class="st1" d="M4.68 11.64 3.81 11.1c.09-.14.18-.29.27-.43 3.19-4.85 8.07-8.21 13.75-9.46 5.78-1.27 11.71-.22 16.69 2.97l-.55.86C29.21 2 23.56 1 18.05 2.21 12.64 3.4 7.98 6.6 4.94 11.23 4.85 11.37 4.76 11.5 4.68 11.64z"/></g></g><g class="st3"><g><path class="st1" d="M22.61 45c-.32.0-.65-.01-.97-.02l.04-1.02c5.64.25 11.03-1.73 15.19-5.54 4.08-3.75 6.5-8.85 6.81-14.39.01-.16.02-.32.02-.48l1.02.02c0 .17-.01.34-.02.51-.33 5.8-2.86 11.15-7.14 15.08C33.45 42.95 28.17 45 22.61 45z"/></g></g><g class="st3"><g><path class="st1" d="M43.26 30.82l-.95-.37c2.03-5.27 1.89-11.01-.4-16.17-2.25-5.06-6.32-8.99-11.46-11.05C30.3 3.17 30.15 3.11 30 3.06l.35-.96c.16.06.32.12.48.18 5.39 2.16 9.66 6.27 12.01 11.58C45.24 19.28 45.39 25.3 43.26 30.82z"/></g></g><path class="st4" d="M68.8 12.47c0-1.43-1.16-2.59-2.59-2.59H49.09c-1.43.0-2.59 1.16-2.59 2.59s1.16 2.59 2.59 2.59H66.2C67.64 15.06 68.8 13.9 68.8 12.47zm-21.5.0c0-.95.77-1.72 1.72-1.72.95.0 1.72.77 1.72 1.72.0.95-.77 1.72-1.72 1.72C48.07 14.19 47.3 13.42 47.3 12.47zm17.17.0c0-.95.77-1.72 1.72-1.72s1.72.77 1.72 1.72c0 .95-.77 1.72-1.72 1.72C65.24 14.19 64.47 13.42 64.47 12.47z"/><path class="st4" d="M68.8 33.08c0-1.43-1.16-2.59-2.59-2.59H49.09c-1.43.0-2.59 1.16-2.59 2.59s1.16 2.59 2.59 2.59H66.2C67.64 35.67 68.8 34.51 68.8 33.08zm-21.5.0c0-.95.77-1.72 1.72-1.72.95.0 1.72.77 1.72 1.72.0.95-.77 1.72-1.72 1.72S47.3 34.03 47.3 33.08zm17.17.0c0-.95.77-1.72 1.72-1.72s1.72.77 1.72 1.72c0 .95-.77 1.72-1.72 1.72S64.47 34.03 64.47 33.08z"/><path class="st4" d="M68.04 10.63c-1.01-1.01-2.65-1.01-3.66.0L47.26 31.25c-1.01 1.01-1.01 2.65.0 3.66s2.65 1.01 3.66.0L68.04 14.3C69.05 13.29 69.05 11.65 68.04 10.63zM47.82 34.35c-.67-.67-.67-1.76.0-2.43s1.76-.67 2.43.0.67 1.76.0 2.43C49.58 35.03 48.49 35.03 47.82 34.35zM64.98 13.69c-.67-.67-.67-1.76.0-2.43s1.76-.67 2.43.0.67 1.76.0 2.43C66.74 14.36 65.65 14.36 64.98 13.69z"/><g><path class="st5" d="M12.72 9.82c-1.43.0-2.59 1.16-2.59 2.59v20.62c0 1.43 1.16 2.59 2.59 2.59s2.59-1.16 2.59-2.59V12.41c0-1.43-1.16-2.59-2.59-2.59zm0 25c-.95.0-1.72-.77-1.72-1.72.0-.95.77-1.72 1.72-1.72.95.0 1.72.77 1.72 1.72C14.44 34.05 13.67 34.82 12.72 34.82zm0-20.68c-.95.0-1.72-.77-1.72-1.72.0-.95.77-1.72 1.72-1.72.95.0 1.72.77 1.72 1.72C14.44 13.37 13.67 14.14 12.72 14.14z"/><path class="st5" d="M10.88 10.63c-1.01 1.01-1.01 2.65.0 3.66L21.2 24.61c1.01 1.01 2.65 1.01 3.66.0s1.01-2.65.0-3.66L14.55 10.63c-1.01-1.01-2.65-1.01-3.67.0zM24.31 24.06c-.67.67-1.76.67-2.43.0-.67-.67-.67-1.76.0-2.43.67-.67 1.76-.67 2.43.0C24.98 22.3 24.98 23.39 24.31 24.06zM13.94 13.69c-.67.67-1.76.67-2.43.0s-.67-1.76.0-2.43 1.76-.67 2.43.0.67 1.76.0 2.43z"/><path class="st5" d="M35.31 10.63c-1.01-1.01-2.65-1.01-3.66.0L21.33 20.96c-1.01 1.01-1.01 2.65.0 3.66s2.65 1.01 3.66.0L35.31 14.3c1.02-1.01 1.02-2.65.0-3.67zM21.89 24.06c-.67-.67-.67-1.76.0-2.43.67-.67 1.76-.67 2.43.0.67.67.67 1.76.0 2.43C23.65 24.73 22.56 24.73 21.89 24.06zM32.26 13.69c-.67-.67-.67-1.76.0-2.43s1.76-.67 2.43.0.67 1.76.0 2.43C34.02 14.36 32.93 14.36 32.26 13.69z"/><path class="st5" d="M33.48 9.88c-1.43.0-2.59 1.16-2.59 2.59v20.62c0 1.43 1.16 2.59 2.59 2.59s2.59-1.16 2.59-2.59V12.47C36.07 11.04 34.91 9.88 33.48 9.88zm0 25c-.95.0-1.72-.77-1.72-1.72.0-.95.77-1.72 1.72-1.72.95.0 1.72.77 1.72 1.72C35.2 34.11 34.43 34.88 33.48 34.88zm0-20.68c-.95.0-1.72-.77-1.72-1.72.0-.95.77-1.72 1.72-1.72.95.0 1.72.77 1.72 1.72C35.2 13.43 34.43 14.2 33.48 14.2z"/></g><g><g><path class="st1" d="M66.21 15.25H49.09c-1.53.0-2.78-1.25-2.78-2.78s1.25-2.78 2.78-2.78H66.2c1.53.0 2.78 1.25 2.78 2.78S67.74 15.25 66.21 15.25zM49.09 10.07c-1.32.0-2.4 1.08-2.4 2.4s1.08 2.4 2.4 2.4H66.2c1.32.0 2.4-1.08 2.4-2.4s-1.08-2.4-2.4-2.4H49.09zm17.1 4.31c-1.05.0-1.91-.86-1.91-1.91s.86-1.91 1.91-1.91 1.91.86 1.91 1.91C68.1 13.52 67.25 14.38 66.19 14.38zm0-3.44c-.84.0-1.53.69-1.53 1.53S65.35 14 66.19 14s1.53-.69 1.53-1.53C67.72 11.62 67.04 10.94 66.19 10.94zM49.02 14.38c-1.05.0-1.91-.86-1.91-1.91s.86-1.91 1.91-1.91 1.91.86 1.91 1.91C50.93 13.52 50.07 14.38 49.02 14.38zm0-3.44c-.84.0-1.53.69-1.53 1.53S48.18 14 49.02 14s1.53-.69 1.53-1.53C50.55 11.62 49.86 10.94 49.02 10.94z"/></g></g><g><g><path class="st1" d="M66.21 35.86H49.09c-1.53.0-2.78-1.25-2.78-2.78s1.25-2.78 2.78-2.78H66.2c1.53.0 2.78 1.25 2.78 2.78C68.99 34.62 67.74 35.86 66.21 35.86zM49.09 30.68c-1.32.0-2.4 1.08-2.4 2.4s1.08 2.4 2.4 2.4H66.2c1.32.0 2.4-1.08 2.4-2.4s-1.08-2.4-2.4-2.4H49.09zm17.1 4.31c-1.05.0-1.91-.86-1.91-1.91s.86-1.91 1.91-1.91 1.91.86 1.91 1.91C68.1 34.14 67.25 34.99 66.19 34.99zm0-3.44c-.84.0-1.53.69-1.53 1.53.0.84.69 1.53 1.53 1.53s1.53-.69 1.53-1.53C67.72 32.24 67.04 31.55 66.19 31.55zM49.02 34.99c-1.05.0-1.91-.86-1.91-1.91s.86-1.91 1.91-1.91 1.91.86 1.91 1.91C50.93 34.14 50.07 34.99 49.02 34.99zm0-3.44c-.84.0-1.53.69-1.53 1.53.0.84.69 1.53 1.53 1.53s1.53-.69 1.53-1.53C50.55 32.24 49.86 31.55 49.02 31.55z"/></g></g><g><g><path class="st1" d="M49.09 35.86c-.74.0-1.44-.29-1.97-.81-1.08-1.08-1.08-2.85.0-3.93l17.1-20.6c.54-.54 1.24-.83 1.98-.83.74.0 1.44.29 1.97.81.53.53.82 1.22.82 1.97.0.74-.29 1.44-.82 1.97l-17.1 20.6C50.54 35.57 49.84 35.86 49.09 35.86zM66.21 10.07c-.64.0-1.24.25-1.7.7l-17.1 20.6c-.95.95-.95 2.47-.01 3.41.45.45 1.06.7 1.7.7s1.24-.25 1.7-.7l17.1-20.6c.47-.47.71-1.07.71-1.71s-.25-1.24-.7-1.7C67.45 10.32 66.85 10.07 66.21 10.07zM49.04 35.05c-.51.0-.99-.2-1.35-.56s-.56-.84-.56-1.35.2-.99.56-1.35.84-.56 1.35-.56.99.2 1.35.56.56.84.56 1.35-.2.99-.56 1.35C50.03 34.85 49.55 35.05 49.04 35.05zm0-3.44c-.41.0-.79.16-1.08.45-.29.29-.45.67-.45 1.08s.16.79.45 1.08c.58.58 1.58.58 2.16.0.29-.29.45-.67.45-1.08s-.16-.79-.45-1.08C49.83 31.77 49.45 31.61 49.04 31.61zM66.2 14.39c-.51.0-.99-.2-1.35-.56-.74-.75-.74-1.96.0-2.7.72-.72 1.98-.72 2.7.0.74.75.74 1.96.0 2.7C67.19 14.19 66.71 14.39 66.2 14.39zm0-3.44c-.41.0-.79.16-1.08.45-.6.6-.6 1.57.0 2.16.58.58 1.58.58 2.16.0.6-.6.6-1.57.0-2.16C66.99 11.11 66.61 10.95 66.2 10.95z"/></g></g><g><g><path class="st1" d="M12.72 35.74c-1.5.0-2.72-1.22-2.72-2.72V12.41c0-1.5 1.22-2.72 2.72-2.72s2.72 1.22 2.72 2.72v20.62C15.44 34.52 14.22 35.74 12.72 35.74zm0-25.8c-1.36.0-2.46 1.1-2.46 2.46v20.62c0 1.36 1.1 2.46 2.46 2.46 1.36.0 2.46-1.11 2.46-2.46V12.41C15.18 11.05 14.07 9.94 12.72 9.94zm0 25.01c-1.02.0-1.85-.83-1.85-1.85s.83-1.85 1.85-1.85 1.85.83 1.85 1.85C14.56 34.12 13.74 34.95 12.72 34.95zm0-3.44c-.88.0-1.59.71-1.59 1.59s.71 1.59 1.59 1.59 1.59-.71 1.59-1.59S13.59 31.51 12.72 31.51zm0-17.24c-1.02.0-1.85-.83-1.85-1.85s.83-1.85 1.85-1.85 1.85.83 1.85 1.85C14.56 13.44 13.74 14.27 12.72 14.27zm0-3.44c-.88.0-1.59.71-1.59 1.59s.71 1.59 1.59 1.59 1.59-.72 1.59-1.59C14.31 11.54 13.59 10.83 12.72 10.83z"/></g></g><g><g><path class="st1" d="M23.04 25.51c-.73.0-1.41-.28-1.92-.8L10.8 14.39c-.51-.51-.8-1.2-.8-1.92.0-.73.28-1.41.8-1.92.51-.51 1.2-.8 1.92-.8.73.0 1.41.28 1.92.8l10.32 10.32c.51.51.8 1.2.8 1.92.0.73-.28 1.41-.8 1.92C24.45 25.22 23.77 25.51 23.04 25.51zM12.72 10c-.66.0-1.28.26-1.74.72-.47.47-.72 1.08-.72 1.74s.26 1.28.72 1.74L21.3 24.53c.47.47 1.08.72 1.74.72.66.0 1.28-.26 1.74-.72.47-.46.72-1.08.72-1.74s-.26-1.28-.72-1.74L14.46 10.72C13.99 10.26 13.37 10 12.72 10zM23.09 24.69c-.49.0-.96-.19-1.31-.54-.72-.72-.72-1.89.0-2.61.35-.35.81-.54 1.31-.54.49.0.96.19 1.31.54.72.72.72 1.89.0 2.61C24.05 24.5 23.59 24.69 23.09 24.69zm0-3.44c-.43.0-.83.17-1.13.47-.62.62-.62 1.63.0 2.25.3.3.7.47 1.13.47s.83-.17 1.13-.47c.62-.62.62-1.63.0-2.25C23.92 21.41 23.52 21.25 23.09 21.25zM12.73 14.32c-.49.0-.96-.19-1.31-.54-.72-.72-.72-1.89.0-2.61.35-.35.81-.54 1.31-.54.49.0.96.19 1.31.54.72.72.72 1.89.0 2.61C13.68 14.13 13.22 14.32 12.73 14.32zm0-3.44c-.43.0-.83.17-1.13.47-.62.62-.62 1.63.0 2.25.3.3.7.47 1.13.47s.83-.17 1.13-.47c.62-.62.62-1.63.0-2.25C13.55 11.05 13.15 10.88 12.73 10.88z"/></g></g><g><g><path class="st1" d="M23.16 25.51c-.73.0-1.41-.28-1.92-.8-.51-.51-.8-1.2-.8-1.92.0-.73.28-1.41.8-1.92l10.32-10.32c.51-.51 1.2-.8 1.92-.8.73.0 1.41.28 1.92.8.51.51.8 1.2.8 1.92.0.73-.28 1.41-.8 1.92L25.08 24.71C24.57 25.22 23.89 25.51 23.16 25.51zM33.48 10c-.66.0-1.28.26-1.74.72L21.42 21.05c-.47.47-.72 1.08-.72 1.74.0.66.26 1.28.72 1.74.47.47 1.08.72 1.74.72s1.28-.26 1.74-.72l10.32-10.32c.47-.46.72-1.08.72-1.74s-.26-1.28-.72-1.74C34.76 10.26 34.14 10 33.48 10zM23.11 24.69c-.49.0-.96-.19-1.31-.54-.72-.72-.72-1.89.0-2.61.35-.35.81-.54 1.31-.54.49.0.96.19 1.31.54.72.72.72 1.89.0 2.61C24.06 24.5 23.6 24.69 23.11 24.69zm0-3.44c-.43.0-.83.17-1.13.47-.62.62-.62 1.63.0 2.25.3.3.7.47 1.13.47s.83-.17 1.13-.47c.62-.62.62-1.63.0-2.25C23.93 21.41 23.53 21.25 23.11 21.25zm10.36-6.93c-.49.0-.96-.19-1.31-.54-.72-.72-.72-1.89.0-2.61.35-.35.81-.54 1.31-.54s.96.19 1.31.54c.72.72.72 1.89.0 2.61C34.43 14.13 33.97 14.32 33.47 14.32zm0-3.44c-.43.0-.83.17-1.13.47-.62.62-.62 1.63.0 2.25.3.3.7.47 1.13.47s.83-.17 1.13-.47c.62-.62.62-1.63.0-2.25C34.3 11.05 33.9 10.88 33.47 10.88z"/></g></g><g><g><path class="st1" d="M33.48 35.8c-1.5.0-2.72-1.22-2.72-2.72V12.47c0-1.5 1.22-2.72 2.72-2.72s2.72 1.22 2.72 2.72v20.62C36.2 34.58 34.98 35.8 33.48 35.8zm0-25.8c-1.36.0-2.46 1.11-2.46 2.46v20.62c0 1.36 1.1 2.46 2.46 2.46s2.46-1.1 2.46-2.46V12.47C35.94 11.11 34.84 10 33.48 10zm0 25.01c-1.02.0-1.85-.83-1.85-1.85s.83-1.85 1.85-1.85 1.85.83 1.85 1.85S34.5 35.01 33.48 35.01zm0-3.44c-.88.0-1.59.71-1.59 1.59s.71 1.59 1.59 1.59 1.59-.71 1.59-1.59S34.36 31.57 33.48 31.57zm0-17.24c-1.02.0-1.85-.83-1.85-1.85s.83-1.85 1.85-1.85 1.85.83 1.85 1.85S34.5 14.33 33.48 14.33zm0-3.44c-.88.0-1.59.71-1.59 1.59.0.88.71 1.59 1.59 1.59s1.59-.71 1.59-1.59C35.07 11.6 34.36 10.89 33.48 10.89z"/></g></g><g><path class="st1" d="M10 56.77v-6.96c0-.07.01-.14.04-.21s.06-.12.11-.17c.05-.05.1-.09.17-.11.06-.03.13-.04.21-.04.21.0.36.1.47.29l3.01 6.02 3.01-6.02c.12-.19.28-.29.47-.29.07.0.14.01.21.04s.12.06.17.11.09.11.11.17c.03.06.04.13.04.21v6.96c0 .15-.05.27-.16.38-.1.1-.23.16-.38.16s-.27-.05-.38-.16c-.1-.1-.16-.23-.16-.38v-4.71l-2.49 4.97c-.1.18-.26.27-.46.27-.22.0-.38-.11-.49-.32l-2.46-4.92v4.71c0 .15-.05.27-.16.38-.1.1-.23.16-.38.16s-.27-.05-.38-.16C10.05 57.04 10 56.92 10 56.77z"/><path class="st1" d="M18.46 56.53l2.68-6.89c.11-.24.28-.36.51-.36.24.0.41.12.51.36l2.69 6.92c.03.07.04.14.04.22.0.15-.05.27-.16.38-.1.1-.23.16-.38.16s-.27-.05-.37-.16c-.05-.05-.09-.11-.12-.17l-.93-2.38h-2.57l-.93 2.38c-.03.06-.07.12-.12.17-.1.1-.23.16-.38.16s-.27-.05-.37-.16c-.1-.1-.15-.23-.15-.38C18.4 56.69 18.42 56.61 18.46 56.53zm4.06-3-.87-2.25-.87 2.25h1.74z"/><path class="st1" d="M25.21 49.81c0-.15.05-.27.16-.38.1-.1.23-.16.38-.16s.27.05.38.16c.1.1.16.23.16.38v2.97l3.34-3.34c.11-.11.24-.17.39-.17.07.0.14.01.21.04s.12.06.17.11.09.11.11.17c.03.06.04.13.04.21.0.15-.05.27-.16.38l-2.63 2.63 2.68 3.64c.07.09.1.19.1.3.0.07-.01.14-.04.21-.03.07-.06.13-.11.18s-.1.09-.16.12c-.06.03-.13.04-.21.04-.2.0-.35-.08-.45-.23l-2.58-3.5-.71.71v2.48c0 .15-.05.27-.16.38-.1.1-.23.16-.38.16s-.27-.05-.38-.16c-.1-.1-.16-.23-.16-.38V49.81z"/><path class="st1" d="M36 56.24c.15.0.27.05.38.16.1.1.15.23.15.38.0.15-.05.27-.15.38-.1.1-.23.16-.38.16h-4.64c-.08.0-.15-.01-.21-.04-.06-.03-.12-.06-.17-.11s-.09-.1-.11-.17c-.03-.06-.04-.13-.04-.21v-6.96c0-.07.01-.14.04-.21.03-.07.06-.12.11-.17.05-.05.11-.09.17-.11.06-.03.13-.04.21-.04H36c.15.0.27.05.38.16.1.1.15.23.15.38.0.15-.05.27-.15.38-.1.1-.23.16-.38.16h-4.11v2.42h2.95c.15.0.27.05.38.15.1.1.15.23.15.38.0.15-.05.27-.15.38-.1.1-.23.15-.38.15h-2.95v2.42H36z"/></g><g><path class="st0" d="M36.26 49.28h5.42c.07.0.14.01.21.04s.12.06.17.11c.05.05.09.11.11.17.03.06.04.13.04.21.0.11-.03.21-.1.31l-4.76 6.12h4.33c.15.0.28.06.38.16.1.1.15.23.15.38.0.15-.05.27-.15.37-.1.1-.23.15-.37.15h-5.43c-.08.0-.15-.01-.21-.04s-.12-.06-.17-.11c-.05-.05-.09-.1-.11-.17-.03-.06-.04-.13-.04-.21.0-.13.04-.24.11-.33l4.75-6.1h-4.33c-.14.0-.27-.05-.37-.16-.11-.1-.16-.23-.16-.38.0-.15.05-.27.16-.38C35.99 49.33 36.12 49.28 36.26 49.28z"/><path class="st0" d="M43.6 49.81v4.64c0 .24.05.48.14.69.09.22.22.41.38.57.16.16.35.29.57.39s.45.14.7.14.48-.05.7-.14c.22-.09.41-.22.57-.39.16-.16.29-.35.38-.57s.14-.45.14-.69v-4.64c0-.15.05-.27.16-.38.1-.1.23-.16.38-.16s.27.05.38.16c.1.1.16.23.16.38v4.64c0 .26-.03.51-.1.75s-.16.47-.29.68c-.12.21-.27.41-.45.58-.17.17-.37.32-.58.45s-.44.22-.68.29-.49.1-.76.1c-.79.0-1.46-.28-2.01-.84-.56-.56-.84-1.23-.84-2.02V49.8c0-.15.05-.27.16-.38.1-.1.23-.16.38-.16.15.0.27.05.38.16C43.55 49.54 43.6 49.66 43.6 49.81z"/><path class="st0" d="M48.55 56.77v-6.96c0-.07.01-.14.04-.21s.06-.12.11-.17c.05-.05.1-.09.17-.11.06-.03.13-.04.21-.04h1.94c.34.0.66.07.96.2.3.13.56.31.78.53s.4.49.53.78c.13.3.2.62.2.96.0.22-.03.44-.08.64-.06.21-.14.41-.25.59-.11.19-.24.36-.41.52-.16.16-.35.3-.56.42l1.6 2.56c.06.09.09.19.09.29.0.08-.01.15-.04.21s-.06.12-.11.17c-.05.05-.11.09-.17.11-.07.03-.13.04-.21.04-.19.0-.34-.09-.46-.26l-1.77-2.83h-1.5v2.56c0 .15-.05.27-.15.38-.1.1-.23.16-.38.16-.15.0-.27-.05-.38-.16C48.6 57.04 48.55 56.92 48.55 56.77zm1.06-6.43v2.8h1.4c.19.0.38-.04.55-.11.17-.07.32-.17.44-.3.13-.13.23-.28.3-.45s.11-.35.11-.54-.04-.38-.11-.55c-.07-.17-.17-.32-.3-.45-.13-.13-.28-.23-.45-.3s-.35-.11-.54-.11H49.61z"/><path class="st0" d="M55.58 56.77c0 .15-.05.27-.16.38-.1.1-.23.16-.38.16-.15.0-.27-.05-.38-.16-.1-.1-.15-.23-.15-.38v-6.96c0-.15.05-.27.15-.38.1-.1.23-.16.38-.16.15.0.27.05.38.16.1.1.16.23.16.38v6.96z"/><path class="st0" d="M62.34 55.5c.07.0.14.01.21.04.06.03.12.07.17.11.05.05.09.1.12.17.03.06.04.13.04.21.0.14-.05.27-.17.38-.75.6-1.59.89-2.52.89-1.11.0-2.06-.39-2.84-1.17s-1.17-1.73-1.17-2.84.39-2.05 1.17-2.84c.79-.79 1.73-1.18 2.84-1.18.95.0 1.81.31 2.57.94.09.09.14.21.14.37.0.08-.01.15-.04.21s-.07.12-.11.17c-.05.05-.11.09-.17.11-.06.03-.13.04-.21.04-.13.0-.25-.05-.37-.15-.26-.2-.53-.35-.84-.46s-.63-.16-.98-.16c-.82.0-1.51.29-2.09.87-.57.57-.86 1.27-.86 2.08.0.82.29 1.51.86 2.09.58.57 1.27.86 2.09.86.7.0 1.31-.22 1.85-.65C62.12 55.53 62.22 55.5 62.34 55.5z"/><path class="st0" d="M68.88 56.77c0 .15-.05.27-.16.38-.1.1-.23.16-.38.16-.15.0-.27-.05-.38-.16-.1-.1-.16-.23-.16-.38v-2.95h-3.58v2.95c0 .15-.05.27-.15.38-.1.1-.23.16-.38.16-.15.0-.27-.05-.38-.16-.1-.1-.15-.23-.15-.38v-6.96c0-.15.05-.27.15-.38.1-.1.23-.16.38-.16.15.0.27.05.38.16.1.1.15.23.15.38v2.95h3.58v-2.95c0-.15.05-.27.16-.38.1-.1.23-.16.38-.16.15.0.27.05.38.16.1.1.16.23.16.38v6.96z"/></g><g><path class="st0" d="M25.85 59.65c.06-.06.14-.09.22-.09.09.0.17.03.23.09s.09.14.09.23c0 .09-.03.16-.09.22s-.14.09-.23.09-.16-.03-.22-.09-.09-.14-.09-.22C25.76 59.78 25.79 59.71 25.85 59.65zm0 1.26c.06-.06.14-.09.22-.09.09.0.17.03.23.09s.09.14.09.22c0 .09-.03.17-.09.23-.06.06-.14.09-.23.09s-.16-.03-.22-.09-.09-.14-.09-.23S25.79 60.97 25.85 60.91z"/></g><path class="st0" d="M27.14 60.86c.07-.07.15-.1.24-.1.1.0.18.03.24.1.07.07.1.15.1.24.0.1-.03.18-.1.24-.07.07-.15.1-.24.1s-.18-.03-.24-.1c-.07-.07-.1-.15-.1-.24C27.05 61.01 27.08 60.93 27.14 60.86z"/><path class="st0" d="M28.48 59.65c.06-.06.14-.09.22-.09.09.0.17.03.23.09s.09.14.09.23c0 .09-.03.16-.09.22s-.14.09-.23.09-.16-.03-.22-.09-.09-.14-.09-.22C28.38 59.78 28.41 59.71 28.48 59.65zm0 1.26c.06-.06.14-.09.22-.09.09.0.17.03.23.09s.09.14.09.22c0 .09-.03.17-.09.23-.06.06-.14.09-.23.09s-.16-.03-.22-.09-.09-.14-.09-.23C28.38 61.04 28.41 60.97 28.48 60.91z"/><g><path class="st0" d="M29.79 59.65c.06-.06.14-.09.22-.09.09.0.17.03.23.09s.09.14.09.23c0 .09-.03.16-.09.22s-.14.09-.23.09-.16-.03-.22-.09-.09-.14-.09-.22C29.7 59.78 29.73 59.71 29.79 59.65zm0 1.26c.06-.06.14-.09.22-.09.09.0.17.03.23.09s.09.14.09.22c0 .09-.03.17-.09.23-.06.06-.14.09-.23.09s-.16-.03-.22-.09-.09-.14-.09-.23S29.73 60.97 29.79 60.91z"/></g><path class="st0" d="M31.09 60.86c.07-.07.15-.1.24-.1.1.0.18.03.24.1.07.07.1.15.1.24.0.1-.03.18-.1.24-.07.07-.15.1-.24.1s-.18-.03-.24-.1c-.07-.07-.1-.15-.1-.24S31.02 60.93 31.09 60.86z"/><path class="st0" d="M32.42 59.65c.06-.06.14-.09.22-.09.09.0.17.03.23.09.06.06.09.14.09.23s-.03.16-.09.22-.14.09-.23.09c-.09.0-.16-.03-.22-.09s-.09-.14-.09-.22S32.35 59.71 32.42 59.65zm0 1.26c.06-.06.14-.09.22-.09.09.0.17.03.23.09.06.06.09.14.09.22.0.09-.03.17-.09.23-.06.06-.14.09-.23.09-.09.0-.16-.03-.22-.09s-.09-.14-.09-.23C32.32 61.04 32.35 60.97 32.42 60.91z"/><g><path class="st0" d="M17.97 59.65c.06-.06.14-.09.22-.09.09.0.17.03.23.09s.09.14.09.23c0 .09-.03.16-.09.22s-.14.09-.23.09-.16-.03-.22-.09-.09-.14-.09-.22C17.88 59.78 17.91 59.71 17.97 59.65zm0 1.26c.06-.06.14-.09.22-.09.09.0.17.03.23.09s.09.14.09.22c0 .09-.03.17-.09.23-.06.06-.14.09-.23.09s-.16-.03-.22-.09-.09-.14-.09-.23S17.91 60.97 17.97 60.91z"/></g><path class="st0" d="M19.26 60.86c.07-.07.15-.1.24-.1.1.0.18.03.24.1.07.07.1.15.1.24.0.1-.03.18-.1.24-.07.07-.15.1-.24.1s-.18-.03-.24-.1c-.07-.07-.1-.15-.1-.24S19.2 60.93 19.26 60.86z"/><path class="st0" d="M20.59 59.65c.06-.06.14-.09.22-.09.09.0.17.03.23.09s.09.14.09.23c0 .09-.03.16-.09.22s-.14.09-.23.09-.16-.03-.22-.09-.09-.14-.09-.22C20.5 59.78 20.53 59.71 20.59 59.65zm0 1.26c.06-.06.14-.09.22-.09.09.0.17.03.23.09s.09.14.09.22c0 .09-.03.17-.09.23-.06.06-.14.09-.23.09s-.16-.03-.22-.09-.09-.14-.09-.23S20.53 60.97 20.59 60.91z"/><g><path class="st0" d="M21.91 59.65c.06-.06.14-.09.22-.09.09.0.17.03.23.09s.09.14.09.23c0 .09-.03.16-.09.22s-.14.09-.23.09-.16-.03-.22-.09-.09-.14-.09-.22C21.82 59.78 21.85 59.71 21.91 59.65zm0 1.26c.06-.06.14-.09.22-.09.09.0.17.03.23.09s.09.14.09.22c0 .09-.03.17-.09.23-.06.06-.14.09-.23.09s-.16-.03-.22-.09-.09-.14-.09-.23S21.85 60.97 21.91 60.91z"/></g><path class="st0" d="M23.2 60.86c.07-.07.15-.1.24-.1.1.0.18.03.24.1.07.07.1.15.1.24.0.1-.03.18-.1.24-.07.07-.15.1-.24.1s-.18-.03-.24-.1c-.07-.07-.1-.15-.1-.24C23.11 61.01 23.14 60.93 23.2 60.86z"/><path class="st0" d="M24.54 59.65c.06-.06.14-.09.22-.09.09.0.17.03.23.09s.09.14.09.23c0 .09-.03.16-.09.22s-.14.09-.23.09-.16-.03-.22-.09-.09-.14-.09-.22C24.44 59.78 24.47 59.71 24.54 59.65zm0 1.26c.06-.06.14-.09.22-.09.09.0.17.03.23.09s.09.14.09.22c0 .09-.03.17-.09.23-.06.06-.14.09-.23.09s-.16-.03-.22-.09-.09-.14-.09-.23C24.44 61.04 24.47 60.97 24.54 60.91z"/><g><path class="st0" d="M10.09 59.65c.06-.06.14-.09.22-.09.09.0.17.03.23.09s.09.14.09.23c0 .09-.03.16-.09.22s-.14.09-.23.09-.16-.03-.22-.09-.09-.14-.09-.22C9.99 59.78 10.03 59.71 10.09 59.65zm0 1.26c.06-.06.14-.09.22-.09.09.0.17.03.23.09s.09.14.09.22c0 .09-.03.17-.09.23-.06.06-.14.09-.23.09s-.16-.03-.22-.09-.09-.14-.09-.23C9.99 61.04 10.03 60.97 10.09 60.91z"/></g><path class="st0" d="M11.38 60.86c.07-.07.15-.1.24-.1.1.0.18.03.24.1.07.07.1.15.1.24.0.1-.03.18-.1.24-.07.07-.15.1-.24.1s-.18-.03-.24-.1c-.07-.07-.1-.15-.1-.24C11.28 61.01 11.32 60.93 11.38 60.86z"/><path class="st0" d="M12.71 59.65c.06-.06.14-.09.22-.09.09.0.17.03.23.09s.09.14.09.23c0 .09-.03.16-.09.22s-.14.09-.23.09-.16-.03-.22-.09-.09-.14-.09-.22C12.62 59.78 12.65 59.71 12.71 59.65zm0 1.26c.06-.06.14-.09.22-.09.09.0.17.03.23.09s.09.14.09.22c0 .09-.03.17-.09.23-.06.06-.14.09-.23.09s-.16-.03-.22-.09-.09-.14-.09-.23C12.62 61.04 12.65 60.97 12.71 60.91z"/><g><path class="st0" d="M14.03 59.65c.06-.06.14-.09.22-.09.09.0.17.03.23.09s.09.14.09.23c0 .09-.03.16-.09.22s-.14.09-.23.09-.16-.03-.22-.09-.09-.14-.09-.22C13.94 59.78 13.97 59.71 14.03 59.65zm0 1.26c.06-.06.14-.09.22-.09.09.0.17.03.23.09s.09.14.09.22c0 .09-.03.17-.09.23-.06.06-.14.09-.23.09s-.16-.03-.22-.09-.09-.14-.09-.23S13.97 60.97 14.03 60.91z"/></g><path class="st0" d="M15.32 60.86c.07-.07.15-.1.24-.1.1.0.18.03.24.1.07.07.1.15.1.24.0.1-.03.18-.1.24-.07.07-.15.1-.24.1s-.18-.03-.24-.1c-.07-.07-.1-.15-.1-.24S15.26 60.93 15.32 60.86z"/><path class="st0" d="M16.65 59.65c.06-.06.14-.09.22-.09.09.0.17.03.23.09s.09.14.09.23c0 .09-.03.16-.09.22s-.14.09-.23.09-.16-.03-.22-.09-.09-.14-.09-.22C16.56 59.78 16.59 59.71 16.65 59.65zm0 1.26c.06-.06.14-.09.22-.09.09.0.17.03.23.09s.09.14.09.22c0 .09-.03.17-.09.23-.06.06-.14.09-.23.09s-.16-.03-.22-.09-.09-.14-.09-.23S16.59 60.97 16.65 60.91z"/><g><path class="st1" d="M61.76 59.65c.06-.06.14-.09.22-.09.09.0.17.03.23.09.06.06.09.14.09.23.0.09-.03.16-.09.22s-.14.09-.23.09c-.09.0-.16-.03-.22-.09s-.09-.14-.09-.22C61.67 59.78 61.7 59.71 61.76 59.65zm0 1.26c.06-.06.14-.09.22-.09.09.0.17.03.23.09.06.06.09.14.09.22.0.09-.03.17-.09.23-.06.06-.14.09-.23.09-.09.0-.16-.03-.22-.09s-.09-.14-.09-.23C61.67 61.04 61.7 60.97 61.76 60.91z"/></g><path class="st1" d="M63.06 60.86c.07-.07.15-.1.24-.1.1.0.18.03.24.1.07.07.1.15.1.24.0.1-.03.18-.1.24-.07.07-.15.1-.24.1s-.18-.03-.24-.1c-.07-.07-.1-.15-.1-.24S62.99 60.93 63.06 60.86z"/><path class="st1" d="M64.39 59.65c.06-.06.14-.09.22-.09.09.0.17.03.23.09s.09.14.09.23c0 .09-.03.16-.09.22s-.14.09-.23.09-.16-.03-.22-.09-.09-.14-.09-.22C64.3 59.78 64.33 59.71 64.39 59.65zm0 1.26c.06-.06.14-.09.22-.09.09.0.17.03.23.09s.09.14.09.22c0 .09-.03.17-.09.23-.06.06-.14.09-.23.09s-.16-.03-.22-.09-.09-.14-.09-.23S64.33 60.97 64.39 60.91z"/><g><path class="st1" d="M65.7 59.65c.06-.06.14-.09.22-.09.09.0.17.03.23.09s.09.14.09.23c0 .09-.03.16-.09.22s-.14.09-.23.09-.16-.03-.22-.09-.09-.14-.09-.22C65.61 59.78 65.64 59.71 65.7 59.65zm0 1.26c.06-.06.14-.09.22-.09.09.0.17.03.23.09s.09.14.09.22c0 .09-.03.17-.09.23-.06.06-.14.09-.23.09s-.16-.03-.22-.09-.09-.14-.09-.23S65.64 60.97 65.7 60.91z"/></g><path class="st1" d="M67 60.86c.07-.07.15-.1.24-.1.1.0.18.03.24.1.07.07.1.15.1.24.0.1-.03.18-.1.24-.07.07-.15.1-.24.1-.09.0-.18-.03-.24-.1-.07-.07-.1-.15-.1-.24S66.93 60.93 67 60.86z"/><path class="st1" d="M68.33 59.65c.06-.06.14-.09.22-.09.09.0.17.03.23.09s.09.14.09.23-.03.16-.09.22-.14.09-.23.09-.16-.03-.22-.09-.09-.14-.09-.22S68.27 59.71 68.33 59.65zm0 1.26c.06-.06.14-.09.22-.09.09.0.17.03.23.09s.09.14.09.22c0 .09-.03.17-.09.23-.06.06-.14.09-.23.09s-.16-.03-.22-.09-.09-.14-.09-.23S68.27 60.97 68.33 60.91z"/><g><path class="st1" d="M53.88 59.65c.06-.06.14-.09.22-.09.09.0.17.03.23.09.06.06.09.14.09.23.0.09-.03.16-.09.22s-.14.09-.23.09c-.09.0-.16-.03-.22-.09s-.09-.14-.09-.22C53.79 59.78 53.82 59.71 53.88 59.65zm0 1.26c.06-.06.14-.09.22-.09.09.0.17.03.23.09.06.06.09.14.09.22.0.09-.03.17-.09.23-.06.06-.14.09-.23.09-.09.0-.16-.03-.22-.09s-.09-.14-.09-.23S53.82 60.97 53.88 60.91z"/></g><path class="st1" d="M55.18 60.86c.07-.07.15-.1.24-.1.1.0.18.03.24.1.07.07.1.15.1.24.0.1-.03.18-.1.24-.07.07-.15.1-.24.1s-.18-.03-.24-.1c-.07-.07-.1-.15-.1-.24S55.11 60.93 55.18 60.86z"/><path class="st1" d="M56.51 59.65c.06-.06.14-.09.22-.09.09.0.17.03.23.09.06.06.09.14.09.23.0.09-.03.16-.09.22s-.14.09-.23.09c-.09.0-.16-.03-.22-.09s-.09-.14-.09-.22C56.42 59.78 56.45 59.71 56.51 59.65zm0 1.26c.06-.06.14-.09.22-.09.09.0.17.03.23.09.06.06.09.14.09.22.0.09-.03.17-.09.23-.06.06-.14.09-.23.09-.09.0-.16-.03-.22-.09s-.09-.14-.09-.23C56.42 61.04 56.45 60.97 56.51 60.91z"/><g><path class="st1" d="M57.82 59.65c.06-.06.14-.09.22-.09.09.0.17.03.23.09.06.06.09.14.09.23.0.09-.03.16-.09.22s-.14.09-.23.09c-.09.0-.16-.03-.22-.09s-.09-.14-.09-.22C57.73 59.78 57.76 59.71 57.82 59.65zm0 1.26c.06-.06.14-.09.22-.09.09.0.17.03.23.09.06.06.09.14.09.22.0.09-.03.17-.09.23-.06.06-.14.09-.23.09-.09.0-.16-.03-.22-.09s-.09-.14-.09-.23S57.76 60.97 57.82 60.91z"/></g><path class="st1" d="M59.12 60.86c.07-.07.15-.1.24-.1.1.0.18.03.24.1.07.07.1.15.1.24.0.1-.03.18-.1.24-.07.07-.15.1-.24.1s-.18-.03-.24-.1c-.07-.07-.1-.15-.1-.24C59.02 61.01 59.05 60.93 59.12 60.86z"/><path class="st1" d="M60.45 59.65c.06-.06.14-.09.22-.09.09.0.17.03.23.09.06.06.09.14.09.23.0.09-.03.16-.09.22s-.14.09-.23.09c-.09.0-.16-.03-.22-.09s-.09-.14-.09-.22C60.36 59.78 60.39 59.71 60.45 59.65zm0 1.26c.06-.06.14-.09.22-.09.09.0.17.03.23.09.06.06.09.14.09.22.0.09-.03.17-.09.23-.06.06-.14.09-.23.09-.09.0-.16-.03-.22-.09s-.09-.14-.09-.23S60.39 60.97 60.45 60.91z"/><g><path class="st1" d="M46 59.65c.06-.06.14-.09.22-.09.09.0.17.03.23.09.06.06.09.14.09.23.0.09-.03.16-.09.22s-.14.09-.23.09c-.09.0-.16-.03-.22-.09s-.09-.14-.09-.22C45.91 59.78 45.94 59.71 46 59.65zm0 1.26c.06-.06.14-.09.22-.09.09.0.17.03.23.09.06.06.09.14.09.22.0.09-.03.17-.09.23-.06.06-.14.09-.23.09-.09.0-.16-.03-.22-.09s-.09-.14-.09-.23S45.94 60.97 46 60.91z"/></g><path class="st1" d="M47.3 60.86c.07-.07.15-.1.24-.1.1.0.18.03.24.1.07.07.1.15.1.24.0.1-.03.18-.1.24-.07.07-.15.1-.24.1s-.18-.03-.24-.1c-.07-.07-.1-.15-.1-.24C47.2 61.01 47.23 60.93 47.3 60.86z"/><path class="st1" d="M48.63 59.65c.06-.06.14-.09.22-.09.09.0.17.03.23.09.06.06.09.14.09.23.0.09-.03.16-.09.22s-.14.09-.23.09c-.09.0-.16-.03-.22-.09s-.09-.14-.09-.22C48.54 59.78 48.57 59.71 48.63 59.65zm0 1.26c.06-.06.14-.09.22-.09.09.0.17.03.23.09.06.06.09.14.09.22.0.09-.03.17-.09.23-.06.06-.14.09-.23.09-.09.0-.16-.03-.22-.09s-.09-.14-.09-.23S48.57 60.97 48.63 60.91z"/><g><path class="st1" d="M49.94 59.65c.06-.06.14-.09.22-.09.09.0.17.03.23.09.06.06.09.14.09.23.0.09-.03.16-.09.22s-.14.09-.23.09c-.09.0-.16-.03-.22-.09s-.09-.14-.09-.22C49.85 59.78 49.88 59.71 49.94 59.65zm0 1.26c.06-.06.14-.09.22-.09.09.0.17.03.23.09.06.06.09.14.09.22.0.09-.03.17-.09.23-.06.06-.14.09-.23.09-.09.0-.16-.03-.22-.09s-.09-.14-.09-.23C49.85 61.04 49.88 60.97 49.94 60.91z"/></g><path class="st1" d="M51.24 60.86c.07-.07.15-.1.24-.1.1.0.18.03.24.1.07.07.1.15.1.24.0.1-.03.18-.1.24-.07.07-.15.1-.24.1s-.18-.03-.24-.1c-.07-.07-.1-.15-.1-.24S51.17 60.93 51.24 60.86z"/><path class="st1" d="M52.57 59.65c.06-.06.14-.09.22-.09.09.0.17.03.23.09.06.06.09.14.09.23.0.09-.03.16-.09.22s-.14.09-.23.09c-.09.0-.16-.03-.22-.09s-.09-.14-.09-.22C52.48 59.78 52.51 59.71 52.57 59.65zm0 1.26c.06-.06.14-.09.22-.09.09.0.17.03.23.09.06.06.09.14.09.22.0.09-.03.17-.09.23-.06.06-.14.09-.23.09-.09.0-.16-.03-.22-.09s-.09-.14-.09-.23S52.51 60.97 52.57 60.91z"/><path class="st2" d="M71.23 8.7c-.87-1.18-2.18-2.06-3.61-2.43-.03-.01-.06-.01-.09-.01-.22.0-.44.16-.49.38-.06.15-.04.3.03.43.07.13.18.21.3.24 1.51.39 2.81 1.46 3.49 2.85.56 1.14.7 2.5.39 3.72-.03.13.0.27.08.39.08.12.2.19.33.21.27.08.55-.07.64-.31C72.78 12.33 72.37 10.23 71.23 8.7z"/><path class="st2" d="M69.11 13.62c.08.13.2.21.34.24.14.04.28.02.4-.04.12-.07.21-.17.25-.29.32-1.15.08-2.46-.63-3.42-.6-.8-1.46-1.36-2.36-1.54-.03-.01-.06-.01-.08-.01-.2.0-.33.14-.38.21-.13.18-.16.41-.08.58.06.14.21.26.38.3.81.21 1.51.77 1.87 1.5.33.64.41 1.39.22 2.1C69.02 13.36 69.04 13.5 69.11 13.62z"/><path class="st1" d="M57.65.0c-7.14.0-13.51 3.28-17.7 8.4C40 8.47 40.06 8.53 40.11 8.6 44.25 3.5 50.57.25 57.65.25c12.48.0 22.6 10.12 22.6 22.6.0 12.48-10.12 22.6-22.6 22.6-7.08.0-13.4-3.26-17.54-8.35-.05.07-.11.13-.16.19 4.19 5.13 10.56 8.41 17.7 8.41 12.62.0 22.85-10.23 22.85-22.85C80.5 10.23 70.27.0 57.65.0z"/><path class="st1" d="M39.84 36.74c-4.07 5.04-10.29 8.27-17.25 8.27-12.22.0-22.16-9.94-22.16-22.16S10.37.68 22.59.68c6.96.0 13.18 3.23 17.25 8.27.09-.12.18-.23.27-.35C35.96 3.51 29.65.25 22.59.25 10.13.26.0 10.39.0 22.85s10.13 22.59 22.59 22.59c7.06.0 13.38-3.26 17.52-8.35C40.02 36.97 39.93 36.86 39.84 36.74z"/></g></svg>