<svg id="Layer_1" xmlns="http://www.w3.org/2000/svg" xmlns:xlink="http://www.w3.org/1999/xlink" viewBox="0 0 157.78 122.06" style="enable-background:new 0 0 157.78 122.06"><style>.st0{fill:#004575}.st1{fill:#0079c2}.st2{fill:#fff}.st3{opacity:.3}.st4{opacity:.8;fill:#0079c2}.st5{opacity:.5;fill:#fff}</style><g><path class="st0" d="M69.41 115.32c.32.17.57.4.74.68.17.29.25.61.25.96.0.4-.09.78-.27 1.15-.18.37-.48.79-.89 1.24-.41.45-.99 1.01-1.73 1.69h3.05l-.12.88h-4.18v-.83c.84-.81 1.47-1.45 1.89-1.91s.71-.85.88-1.17c.17-.33.25-.65.25-.98.0-.34-.1-.6-.29-.8-.2-.2-.46-.29-.8-.29-.29.0-.54.05-.75.16-.2.11-.41.29-.62.54l-.7-.55c.27-.34.57-.6.92-.77.34-.17.75-.26 1.23-.26C68.7 115.07 69.09 115.16 69.41 115.32z"/><path class="st0" d="M76.09 115.97c.39.6.59 1.46.59 2.59.0 1.12-.2 1.99-.59 2.59-.39.6-.96.91-1.7.91-.75.0-1.32-.3-1.71-.91-.39-.6-.58-1.47-.58-2.59s.19-1.99.58-2.59c.39-.6.96-.9 1.71-.9C75.13 115.07 75.7 115.37 76.09 115.97zM73.49 116.54c-.2.42-.3 1.09-.3 2.02.0.94.1 1.61.3 2.04.2.42.5.63.89.63s.69-.21.89-.63.3-1.1.3-2.04c0-.93-.1-1.6-.3-2.02s-.5-.63-.89-.63C73.99 115.91 73.7 116.12 73.49 116.54zM74.84 118.12c.12.12.19.27.19.45s-.06.33-.19.46c-.12.12-.28.19-.46.19-.18.0-.33-.06-.45-.19-.12-.12-.18-.28-.18-.46.0-.17.06-.32.18-.45.12-.12.27-.18.45-.18C74.56 117.94 74.72 118 74.84 118.12z"/><path class="st1" d="M81.1 115.32c.32.17.57.4.74.68.17.29.25.61.25.96.0.4-.09.78-.27 1.15-.18.37-.48.79-.89 1.24-.41.45-.99 1.01-1.73 1.69h3.05l-.12.88h-4.18v-.83c.84-.81 1.47-1.45 1.89-1.91s.71-.85.88-1.17c.17-.33.25-.65.25-.98.0-.34-.1-.6-.29-.8-.19-.2-.46-.29-.8-.29-.29.0-.54.05-.75.16s-.41.29-.62.54l-.7-.55c.27-.34.57-.6.92-.77.34-.17.75-.26 1.23-.26C80.4 115.07 80.78 115.16 81.1 115.32z"/><path class="st1" d="M87.78 115.97c.39.6.58 1.46.58 2.59.0 1.12-.19 1.99-.58 2.59-.39.6-.96.91-1.71.91s-1.32-.3-1.71-.91c-.39-.6-.58-1.47-.58-2.59s.19-1.99.58-2.59c.39-.6.96-.9 1.71-.9S87.39 115.37 87.78 115.97zM85.19 116.54c-.2.42-.3 1.09-.3 2.02.0.94.1 1.61.3 2.04.2.42.5.63.89.63s.69-.21.89-.63.3-1.1.3-2.04c0-.93-.1-1.6-.3-2.02s-.5-.63-.89-.63C85.68 115.91 85.39 116.12 85.19 116.54zM86.53 118.12c.12.12.19.27.19.45s-.06.33-.19.46c-.12.12-.28.19-.46.19-.18.0-.33-.06-.45-.19-.12-.12-.18-.28-.18-.46.0-.17.06-.32.18-.45.12-.12.27-.18.45-.18C86.26 117.94 86.41 118 86.53 118.12z"/></g><path class="st2" d="M156.28 44.78c0 23.9-19.38 43.28-43.28 43.28S69.72 68.68 69.72 44.78C69.72 20.88 89.09 1.5 113 1.5s43.28 19.38 43.28 43.28z"/><path class="st1" d="M113 89.56c-24.69.0-44.78-20.09-44.78-44.78S88.31.0 113 0s44.78 20.09 44.78 44.78S137.69 89.56 113 89.56zM113 3C89.96 3 71.22 21.74 71.22 44.78S89.96 86.56 113 86.56s41.78-18.74 41.78-41.78S136.04 3 113 3z"/><ellipse transform="matrix(0.9692 -0.2462 0.2462 0.9692 -9.661 12.2786)" class="st1" cx="44.28" cy="44.78" rx="44.28" ry="44.28"/><g class="st3"><g><path class="st2" d="M82 76.4c-.24-.24-.48-.47-.71-.71-8.1-8.32-12.56-19.29-12.56-30.9.0-11.83 4.61-22.95 12.97-31.31l1.41 1.41c-7.99 7.98-12.38 18.6-12.38 29.9.0 11.08 4.26 21.56 11.99 29.5.22.23.46.46.69.69L82 76.4z"/></g></g><g class="st3"><g><path class="st2" d="M76.5 23.44l-1.73-1c.17-.29.34-.58.52-.87 6.09-9.89 15.64-16.89 26.9-19.72 11.47-2.89 23.38-1.13 33.53 4.93l-1.03 1.72C125 2.7 113.63 1.02 102.68 3.78 91.93 6.48 82.81 13.17 77 22.61 76.83 22.88 76.66 23.16 76.5 23.44z"/></g></g><g class="st3"><g><path class="st2" d="M153.02 31.14c-3.64-10.69-11.23-19.32-21.36-24.3-9.95-4.89-21.23-5.69-31.77-2.26-.3.1-.61.2-.91.31L98.3 3.01c.32-.11.64-.22.96-.33 11.04-3.6 22.86-2.76 33.28 2.36 10.61 5.22 18.56 14.26 22.37 25.45L153.02 31.14z"/></g></g><g class="st3"><g><path class="st2" d="M156.94 50.27l-1.98-.25c1.4-11.21-1.65-22.29-8.58-31.2-6.81-8.75-16.6-14.41-27.58-15.93-.32-.04-.64-.08-.96-.12l.21-1.99c.33.04.66.08.99.12 11.52 1.6 21.78 7.52 28.91 16.68C155.21 26.93 158.4 38.54 156.94 50.27z"/></g></g><g class="st3"><g><path class="st2" d="M113 89.08c-5.62.0-11.24-1.08-16.59-3.24C85.44 81.4 76.85 72.96 72.24 62.08l1.84-.78c4.41 10.4 12.61 18.45 23.08 22.69 10.27 4.15 21.59 4.13 31.85-.07.29-.12.59-.25.89-.38l.81 1.83c-.31.14-.62.27-.94.4C124.36 87.98 118.68 89.08 113 89.08z"/></g></g><g class="st3"><g><path class="st2" d="M116.38 88.93l-.15-1.99c11.26-.86 21.51-6.06 28.87-14.63 7.21-8.41 10.8-19.14 10.11-30.2-.02-.32-.04-.64-.07-.96l1.99-.19c.03.34.06.68.08 1.02.73 11.59-3.03 22.82-10.58 31.63C138.9 82.59 128.17 88.03 116.38 88.93z"/></g></g><g class="st3"><g><path class="st2" d="M44.25 88.22c-6.38.0-12.72-1.42-18.63-4.23C15.15 79 7.24 70.24 3.36 59.31l1.88-.67c3.7 10.42 11.24 18.79 21.23 23.54 9.8 4.67 20.86 5.31 31.14 1.82.3-.1.6-.21.89-.32l.7 1.87c-.31.12-.63.23-.95.34C53.69 87.45 48.96 88.22 44.25 88.22z"/></g></g><g class="st3"><g><path class="st2" d="M8.38 69.21c-.19-.27-.37-.55-.55-.83-6.19-9.56-8.36-20.97-6.13-32.13 2.28-11.37 8.85-21.18 18.5-27.6l1.11 1.66C12.11 16.44 5.84 25.8 3.67 36.64 1.53 47.29 3.61 58.17 9.51 67.29c.17.26.35.53.53.79L8.38 69.21z"/></g></g><g class="st3"><g><path class="st2" d="M3.09 40.39l-1.99-.2c.03-.33.07-.66.11-.99 1.47-11.29 7.19-21.4 16.11-28.47 9.1-7.2 20.45-10.43 31.97-9.08l-.23 1.99c-10.99-1.28-21.82 1.8-30.49 8.66C10.06 19.04 4.6 28.68 3.2 39.45 3.16 39.76 3.13 40.08 3.09 40.39z"/></g></g><g class="st3"><g><path class="st2" d="M9.17 22.81l-1.7-1.05C7.64 21.48 7.82 21.2 8 20.92c6.26-9.51 15.82-16.1 26.94-18.54C46.27-.12 57.89 1.95 67.66 8.2l-1.08 1.69c-9.32-5.96-20.41-7.93-31.21-5.55-10.6 2.34-19.73 8.62-25.7 17.69C9.5 22.28 9.33 22.54 9.17 22.81z"/></g></g><g class="st3"><g><path class="st2" d="M44.32 88.2c-.63.0-1.27-.01-1.91-.04l.09-2c11.06.48 21.63-3.38 29.78-10.86 8-7.34 12.74-17.36 13.35-28.2.02-.31.03-.63.04-.94l2 .05c-.01.33-.02.67-.04 1-.64 11.37-5.61 21.86-14 29.56C65.56 84.19 55.21 88.2 44.32 88.2z"/></g></g><g class="st3"><g><path class="st2" d="M84.8 60.4l-1.87-.72c3.98-10.32 3.7-21.58-.78-31.69-4.4-9.93-12.38-17.62-22.46-21.66C59.4 6.22 59.1 6.1 58.81 6l.69-1.88c.31.11.62.24.93.36C71 8.71 79.36 16.78 83.97 27.18 88.67 37.78 88.96 49.58 84.8 60.4z"/></g></g><path class="st4" d="M134.85 24.43c0-2.8-2.27-5.08-5.08-5.08H96.23c-2.8.0-5.08 2.27-5.08 5.08.0 2.8 2.27 5.08 5.08 5.08h33.54C132.58 29.51 134.85 27.24 134.85 24.43zM92.7 24.43c0-1.86 1.51-3.37 3.37-3.37s3.37 1.51 3.37 3.37-1.51 3.37-3.37 3.37C94.21 27.81 92.7 26.3 92.7 24.43zm33.67.0c0-1.86 1.51-3.37 3.37-3.37s3.37 1.51 3.37 3.37-1.51 3.37-3.37 3.37S126.37 26.3 126.37 24.43z"/><path class="st4" d="M134.85 64.84c0-2.8-2.27-5.08-5.08-5.08H96.23c-2.8.0-5.08 2.28-5.08 5.08s2.27 5.08 5.08 5.08h33.54C132.58 69.92 134.85 67.65 134.85 64.84zM92.7 64.84c0-1.86 1.51-3.37 3.37-3.37s3.37 1.51 3.37 3.37-1.51 3.37-3.37 3.37C94.21 68.22 92.7 66.71 92.7 64.84zm33.67.0c0-1.86 1.51-3.37 3.37-3.37s3.37 1.51 3.37 3.37-1.51 3.37-3.37 3.37S126.37 66.71 126.37 64.84z"/><path class="st4" d="M133.36 20.84c-1.98-1.98-5.2-1.98-7.18.0L92.64 61.25c-1.98 1.98-1.98 5.2.0 7.18s5.2 1.98 7.18.0l33.54-40.41C135.34 26.04 135.34 22.83 133.36 20.84zM93.74 67.33c-1.32-1.32-1.32-3.45.0-4.77 1.32-1.32 3.45-1.32 4.77.0s1.32 3.45.0 4.77C97.19 68.65 95.05 68.65 93.74 67.33zM127.37 26.84c-1.32-1.32-1.32-3.45.0-4.77s3.45-1.32 4.77.0c1.32 1.32 1.32 3.45.0 4.77C130.82 28.15 128.68 28.15 127.37 26.84z"/><g><path class="st5" d="M24.93 19.24c-2.8.0-5.08 2.27-5.08 5.08v40.41c0 2.8 2.27 5.08 5.08 5.08 2.8.0 5.08-2.28 5.08-5.08V24.32C30 21.51 27.73 19.24 24.93 19.24zM24.93 68.25c-1.86.0-3.37-1.51-3.37-3.37s1.51-3.37 3.37-3.37 3.37 1.51 3.37 3.37S26.79 68.25 24.93 68.25zm0-40.53c-1.86.0-3.37-1.51-3.37-3.38.0-1.86 1.51-3.37 3.37-3.37s3.37 1.51 3.37 3.37C28.3 26.21 26.79 27.72 24.93 27.72z"/><path class="st5" d="M21.33 20.84c-1.98 1.98-1.98 5.2.0 7.18l20.23 20.23c1.98 1.98 5.2 1.98 7.18.0s1.98-5.2.0-7.18L28.52 20.84C26.53 18.86 23.32 18.86 21.33 20.84zM47.65 47.16c-1.32 1.32-3.45 1.32-4.77.0s-1.32-3.45.0-4.77c1.32-1.32 3.45-1.32 4.77.0C48.96 43.71 48.96 45.84 47.65 47.16zM27.33 26.84c-1.32 1.32-3.45 1.32-4.77.0s-1.32-3.45.0-4.77 3.45-1.32 4.77.0S28.65 25.52 27.33 26.84z"/><path class="st5" d="M69.22 20.84c-1.98-1.98-5.2-1.98-7.18.0L41.81 41.08c-1.98 1.98-1.98 5.2.0 7.18s5.2 1.98 7.18.0l20.23-20.23C71.2 26.04 71.2 22.83 69.22 20.84zM42.91 47.16c-1.32-1.32-1.32-3.45.0-4.77 1.32-1.32 3.45-1.32 4.77.0 1.32 1.32 1.32 3.45.0 4.77C46.36 48.47 44.22 48.47 42.91 47.16zM63.22 26.84c-1.32-1.32-1.32-3.45.0-4.77s3.45-1.32 4.77.0c1.31 1.32 1.31 3.45.0 4.77C66.68 28.15 64.54 28.15 63.22 26.84z"/><path class="st5" d="M65.63 19.36c-2.8.0-5.08 2.27-5.08 5.08v40.41c0 2.8 2.27 5.08 5.08 5.08 2.8.0 5.08-2.27 5.08-5.08V24.43C70.71 21.63 68.43 19.36 65.63 19.36zM65.63 68.37c-1.86.0-3.37-1.51-3.37-3.37s1.51-3.37 3.37-3.37S69 63.14 69 65C69 66.85 67.49 68.37 65.63 68.37zM65.63 27.83c-1.86.0-3.37-1.51-3.37-3.37s1.51-3.37 3.37-3.37 3.37 1.51 3.37 3.37C69 26.32 67.49 27.83 65.63 27.83z"/></g><g><g><path class="st2" d="M129.77 29.89H96.23c-3.01.0-5.45-2.45-5.45-5.45s2.45-5.45 5.45-5.45h33.54c3.01.0 5.46 2.45 5.46 5.45S132.78 29.89 129.77 29.89zM96.23 19.73c-2.59.0-4.7 2.11-4.7 4.7s2.11 4.7 4.7 4.7h33.54c2.59.0 4.71-2.11 4.71-4.7s-2.11-4.7-4.71-4.7H96.23zM129.74 28.18c-2.07.0-3.75-1.68-3.75-3.75s1.68-3.75 3.75-3.75 3.75 1.68 3.75 3.75S131.81 28.18 129.74 28.18zM129.74 21.44c-1.65.0-3 1.34-3 3 0 1.65 1.34 3 3 3 1.65.0 3-1.34 3-3S131.4 21.44 129.74 21.44zM96.08 28.18c-2.07.0-3.75-1.68-3.75-3.75s1.68-3.75 3.75-3.75 3.75 1.68 3.75 3.75C99.82 26.5 98.14 28.18 96.08 28.18zM96.08 21.44c-1.65.0-3 1.34-3 3 0 1.65 1.34 3 3 3 1.65.0 3-1.34 3-3C99.07 22.78 97.73 21.44 96.08 21.44z"/></g></g><g><g><path class="st2" d="M129.77 70.3H96.23c-3.01.0-5.45-2.45-5.45-5.45.0-3.01 2.45-5.46 5.45-5.46h33.54c3.01.0 5.46 2.45 5.46 5.46C135.22 67.85 132.78 70.3 129.77 70.3zM96.23 60.14c-2.59.0-4.7 2.11-4.7 4.71.0 2.59 2.11 4.7 4.7 4.7h33.54c2.59.0 4.71-2.11 4.71-4.7s-2.11-4.71-4.71-4.71H96.23zM129.74 68.59c-2.07.0-3.75-1.68-3.75-3.75.0-2.07 1.68-3.75 3.75-3.75s3.75 1.68 3.75 3.75S131.81 68.59 129.74 68.59zM129.74 61.85c-1.65.0-3 1.34-3 3 0 1.65 1.34 3 3 3 1.65.0 3-1.34 3-3S131.4 61.85 129.74 61.85zM96.08 68.59c-2.07.0-3.75-1.68-3.75-3.75.0-2.07 1.68-3.75 3.75-3.75s3.75 1.68 3.75 3.75C99.82 66.91 98.14 68.59 96.08 68.59zM96.08 61.85c-1.65.0-3 1.34-3 3 0 1.65 1.34 3 3 3 1.65.0 3-1.34 3-3C99.07 63.19 97.73 61.85 96.08 61.85z"/></g></g><g><g><path class="st2" d="M96.23 70.3c-1.46.0-2.83-.57-3.86-1.6-2.13-2.13-2.13-5.58.0-7.71l33.52-40.38c1.05-1.06 2.42-1.62 3.88-1.62s2.83.57 3.86 1.6 1.6 2.4 1.6 3.86-.57 2.83-1.6 3.86l-33.52 40.38C99.05 69.73 97.68 70.3 96.23 70.3zM129.77 19.73c-1.26.0-2.44.49-3.33 1.38L92.92 61.49c-1.86 1.86-1.86 4.84-.02 6.68.89.89 2.07 1.38 3.33 1.38s2.44-.49 3.33-1.38l33.52-40.38c.91-.91 1.4-2.1 1.4-3.35.0-1.26-.49-2.44-1.38-3.32C132.21 20.22 131.03 19.73 129.77 19.73zM96.12 68.7c-1 0-1.94-.39-2.65-1.1-.71-.71-1.1-1.65-1.1-2.65s.39-1.94 1.1-2.65 1.65-1.1 2.65-1.1 1.94.39 2.65 1.1c.71.71 1.1 1.65 1.1 2.65s-.39 1.94-1.1 2.65C98.06 68.31 97.12 68.7 96.12 68.7zm0-6.75c-.8.0-1.55.31-2.12.88-.57.57-.88 1.32-.88 2.12s.31 1.55.88 2.12c1.13 1.13 3.11 1.13 4.24.0.57-.57.88-1.32.88-2.12.0-.8-.31-1.55-.88-2.12C97.67 62.27 96.92 61.95 96.12 61.95zM129.75 28.2c-1 0-1.94-.39-2.65-1.1-1.46-1.46-1.46-3.84.0-5.3 1.42-1.42 3.88-1.41 5.3.0 1.46 1.46 1.46 3.84.0 5.3C131.69 27.81 130.75 28.2 129.75 28.2zM129.75 21.46c-.8.0-1.55.31-2.12.88-1.17 1.17-1.17 3.07.0 4.24 1.13 1.13 3.11 1.13 4.24.0 1.17-1.17 1.17-3.07.0-4.24C131.3 21.77 130.55 21.46 129.75 21.46z"/></g></g><g><g><path class="st2" d="M24.93 70.06c-2.94.0-5.33-2.39-5.33-5.33V24.32c0-2.94 2.39-5.33 5.33-5.33 2.94.0 5.33 2.39 5.33 5.33v40.41C30.25 67.67 27.86 70.06 24.93 70.06zM24.93 19.49c-2.66.0-4.83 2.17-4.83 4.83v40.41c0 2.66 2.17 4.83 4.83 4.83 2.66.0 4.83-2.17 4.83-4.83V24.32C29.75 21.66 27.59 19.49 24.93 19.49zM24.93 68.5c-2 0-3.62-1.63-3.62-3.62.0-2 1.62-3.62 3.62-3.62s3.62 1.63 3.62 3.62C28.55 66.88 26.92 68.5 24.93 68.5zM24.93 61.76c-1.72.0-3.12 1.4-3.12 3.12s1.4 3.12 3.12 3.12c1.72.0 3.12-1.4 3.12-3.12S26.65 61.76 24.93 61.76zm0-33.79c-2 0-3.62-1.63-3.62-3.63s1.62-3.62 3.62-3.62 3.62 1.62 3.62 3.62S26.92 27.97 24.93 27.97zm0-6.75c-1.72.0-3.12 1.4-3.12 3.12.0 1.72 1.4 3.13 3.12 3.13 1.72.0 3.12-1.4 3.12-3.13C28.05 22.62 26.65 21.22 24.93 21.22z"/></g></g><g><g><path class="st2" d="M45.16 49.99c-1.42.0-2.76-.55-3.77-1.56L21.16 28.2c-1.01-1.01-1.56-2.34-1.56-3.77.0-1.42.55-2.76 1.56-3.77 1.01-1.01 2.34-1.56 3.77-1.56 1.42.0 2.76.55 3.77 1.56L48.92 40.9c1.01 1.01 1.56 2.34 1.56 3.77.0 1.42-.55 2.76-1.56 3.77C47.92 49.44 46.58 49.99 45.16 49.99zM24.93 19.61c-1.29.0-2.5.5-3.41 1.41s-1.41 2.12-1.41 3.41.5 2.5 1.41 3.41l20.23 20.23c.91.91 2.13 1.41 3.42 1.41s2.5-.5 3.41-1.41 1.41-2.12 1.41-3.41c0-1.29-.5-2.5-1.41-3.41L28.34 21.02C27.43 20.11 26.22 19.61 24.93 19.61zM45.26 48.39c-.97.0-1.88-.38-2.56-1.06-1.41-1.41-1.41-3.71.0-5.12.68-.68 1.59-1.06 2.56-1.06s1.88.38 2.56 1.06c1.41 1.41 1.41 3.71.0 5.12C47.14 48.02 46.23 48.39 45.26 48.39zM45.26 41.65c-.83.0-1.62.32-2.21.91-1.22 1.22-1.22 3.2.0 4.42.59.59 1.37.92 2.21.92.83.0 1.62-.33 2.21-.92 1.22-1.22 1.22-3.2.0-4.42C46.88 41.97 46.1 41.65 45.26 41.65zM24.95 28.08c-.97.0-1.88-.38-2.56-1.06-1.41-1.41-1.41-3.71.0-5.12.68-.68 1.59-1.06 2.56-1.06s1.88.38 2.56 1.06c1.41 1.41 1.41 3.71.0 5.12C26.82 27.7 25.91 28.08 24.95 28.08zM24.94 21.33c-.83.0-1.62.32-2.21.91-1.22 1.22-1.21 3.2.0 4.42.59.59 1.37.91 2.21.91.83.0 1.62-.32 2.21-.91 1.22-1.22 1.22-3.2.0-4.42C26.56 21.66 25.78 21.33 24.94 21.33z"/></g></g><g><g><path class="st2" d="M45.4 49.99c-1.42.0-2.76-.55-3.77-1.56-1.01-1.01-1.56-2.34-1.56-3.77.0-1.42.55-2.76 1.56-3.77l20.23-20.23c1.01-1.01 2.34-1.56 3.77-1.56 1.42.0 2.76.55 3.77 1.56 1.01 1.01 1.56 2.34 1.56 3.77.0 1.42-.55 2.76-1.56 3.77L49.16 48.43C48.16 49.44 46.82 49.99 45.4 49.99zM65.63 19.61c-1.29.0-2.5.5-3.41 1.41L41.98 41.25c-.91.91-1.41 2.12-1.41 3.41s.5 2.5 1.41 3.41 2.12 1.41 3.41 1.41c1.29.0 2.5-.5 3.41-1.41l20.23-20.23c.91-.91 1.41-2.12 1.41-3.41s-.5-2.5-1.41-3.41C68.13 20.11 66.92 19.61 65.63 19.61zM45.29 48.39c-.97.0-1.88-.38-2.56-1.06-1.41-1.41-1.41-3.71.0-5.12.68-.68 1.59-1.06 2.56-1.06s1.88.38 2.56 1.06c1.41 1.41 1.41 3.71.0 5.12C47.17 48.02 46.26 48.39 45.29 48.39zM45.29 41.65c-.83.0-1.62.33-2.21.91-1.22 1.22-1.22 3.2.0 4.42.59.59 1.37.92 2.21.92s1.62-.33 2.21-.92c1.22-1.22 1.22-3.2.0-4.42C46.91 41.97 46.13 41.65 45.29 41.65zM65.61 28.08c-.97.0-1.88-.38-2.56-1.06-1.41-1.41-1.41-3.71.0-5.12.68-.68 1.59-1.06 2.56-1.06s1.88.38 2.56 1.06c1.41 1.41 1.41 3.71.0 5.12C67.49 27.7 66.58 28.08 65.61 28.08zm0-6.75c-.83.0-1.62.32-2.21.91-1.22 1.22-1.22 3.2.0 4.42.59.59 1.37.91 2.21.91.83.0 1.62-.32 2.21-.91 1.22-1.22 1.22-3.2.0-4.42C67.23 21.66 66.44 21.33 65.61 21.33z"/></g></g><g><g><path class="st2" d="M65.63 70.17c-2.94.0-5.33-2.39-5.33-5.33V24.43c0-2.94 2.39-5.33 5.33-5.33s5.33 2.39 5.33 5.33v40.41C70.96 67.78 68.57 70.17 65.63 70.17zm0-50.56c-2.66.0-4.83 2.17-4.83 4.83v40.41c0 2.66 2.17 4.83 4.83 4.83s4.83-2.17 4.83-4.83V24.43C70.46 21.77 68.29 19.61 65.63 19.61zM65.63 68.62c-2 0-3.62-1.63-3.62-3.62.0-2 1.62-3.62 3.62-3.62S69.25 63 69.25 65C69.25 66.99 67.63 68.62 65.63 68.62zM65.63 61.87c-1.72.0-3.12 1.4-3.12 3.12s1.4 3.12 3.12 3.12 3.12-1.4 3.12-3.12C68.75 63.27 67.35 61.87 65.63 61.87zm0-33.79c-2 0-3.62-1.63-3.62-3.62.0-2 1.62-3.62 3.62-3.62s3.62 1.63 3.62 3.62C69.25 26.46 67.63 28.08 65.63 28.08zM65.63 21.34c-1.72.0-3.12 1.4-3.12 3.12.0 1.72 1.4 3.12 3.12 3.12s3.12-1.4 3.12-3.12S67.35 21.34 65.63 21.34z"/></g></g><g><path class="st1" d="M19.6 111.28V97.63c0-.14.03-.28.08-.41.05-.13.13-.24.22-.34.1-.09.2-.17.33-.22s.26-.08.41-.08c.41.0.71.19.92.56l5.9 11.79 5.9-11.79c.24-.37.54-.56.92-.56.14.0.28.03.41.08.13.05.24.13.34.22.1.1.17.21.22.34.05.13.08.26.08.41v13.65c0 .29-.1.54-.3.74-.2.2-.45.3-.74.3s-.53-.1-.74-.3c-.2-.2-.31-.45-.31-.74v-9.22l-4.88 9.75c-.2.35-.5.52-.9.52-.43.0-.75-.21-.95-.63l-4.83-9.64v9.22c0 .29-.1.54-.3.74-.2.2-.45.3-.74.3s-.54-.1-.74-.3C19.7 111.81 19.6 111.57 19.6 111.28z"/><path class="st1" d="M36.18 110.81l5.25-13.51c.21-.47.54-.71.99-.71.47.0.8.24.99.71l5.27 13.56c.05.13.08.27.08.42.0.29-.1.54-.3.74-.2.2-.45.3-.74.3s-.53-.1-.73-.3c-.1-.1-.18-.22-.23-.33l-1.82-4.67h-5.04l-1.83 4.67c-.05.12-.13.23-.23.33-.2.2-.45.3-.74.3s-.53-.1-.73-.3c-.2-.2-.3-.45-.3-.74C36.07 111.12 36.11 110.96 36.18 110.81zM44.14 104.92l-1.71-4.42-1.71 4.42H44.14z"/><path class="st1" d="M49.41 97.63c0-.29.1-.53.31-.74.2-.2.45-.3.74-.3s.53.1.74.3c.2.2.31.45.31.74v5.82l6.54-6.54c.22-.22.47-.33.76-.33.14.0.28.03.41.08.13.05.24.13.34.22.09.1.17.21.22.34.05.13.08.26.08.41.0.29-.1.53-.31.74l-5.15 5.16 5.26 7.13c.13.18.2.38.2.59.0.14-.03.27-.08.4-.05.13-.13.25-.22.34-.09.1-.2.18-.32.24-.13.06-.26.09-.4.09-.39.0-.68-.15-.88-.44l-5.06-6.85-1.39 1.39v4.87c0 .29-.1.54-.31.74-.2.2-.45.3-.74.3s-.54-.1-.74-.3-.31-.45-.31-.74V97.63z"/><path class="st1" d="M70.55 110.23c.29.0.54.1.74.31.2.2.3.45.3.74.0.29-.1.54-.3.74-.2.2-.45.3-.74.3h-9.1c-.15.0-.29-.03-.41-.08s-.23-.13-.33-.22c-.09-.1-.17-.21-.22-.33-.05-.13-.08-.26-.08-.41V97.63c0-.14.03-.28.08-.41s.13-.24.22-.34c.1-.09.21-.17.33-.22.13-.05.26-.08.41-.08h9.1c.29.0.54.1.74.3.2.2.3.45.3.74.0.29-.1.53-.3.74-.2.2-.45.31-.74.31H62.5v4.74h5.78c.29.0.54.1.74.3.2.2.3.45.3.74.0.29-.1.53-.3.74-.2.2-.45.3-.74.3H62.5v4.74H70.55z"/></g><g><g><path class="st0" d="M71.08 96.58H81.7c.14.0.28.03.41.08s.24.13.33.22c.1.1.17.21.22.34.05.13.08.26.08.41.0.22-.07.42-.2.61l-9.33 12h8.49c.29.01.54.11.74.32.2.2.3.45.3.74.0.29-.1.53-.3.73s-.44.3-.73.3H71.08c-.15.0-.29-.03-.41-.08-.13-.05-.24-.13-.33-.22-.1-.1-.17-.21-.22-.33-.05-.13-.08-.26-.08-.41.01-.25.08-.47.22-.65l9.31-11.96h-8.49c-.28.0-.52-.1-.73-.31-.21-.2-.31-.45-.31-.74.0-.29.1-.53.31-.74C70.55 96.69 70.79 96.58 71.08 96.58z"/><path class="st0" d="M85.47 97.63v9.1c0 .48.09.93.27 1.36.18.43.43.8.75 1.12.31.32.68.57 1.11.76.42.19.88.28 1.37.28.49.0.94-.09 1.37-.27.43-.18.8-.44 1.12-.76.32-.32.57-.69.75-1.12.18-.42.27-.88.27-1.36v-9.1c0-.29.1-.53.31-.74.2-.2.45-.3.74-.3s.54.1.74.3c.2.2.3.45.3.74v9.1c0 .51-.07 1-.2 1.47-.13.47-.32.92-.56 1.33-.24.42-.54.79-.88 1.14s-.72.63-1.14.88-.86.44-1.34.57c-.47.13-.97.2-1.48.2-1.55.0-2.86-.55-3.94-1.64-1.1-1.09-1.64-2.41-1.64-3.95v-9.1c0-.29.1-.53.31-.74.2-.2.45-.3.74-.3.29.0.54.1.74.3C85.37 97.09 85.47 97.34 85.47 97.63z"/><path class="st0" d="M95.16 111.28V97.63c0-.14.03-.28.08-.41s.13-.24.22-.34c.09-.09.2-.17.33-.22.12-.05.26-.08.41-.08h3.8c.66.0 1.29.13 1.88.38.58.25 1.1.6 1.53 1.04.43.44.78.95 1.04 1.54s.38 1.21.38 1.87c0 .43-.05.85-.16 1.26-.11.41-.27.8-.48 1.16-.21.36-.48.7-.8 1.01s-.69.58-1.11.82l3.14 5.03c.11.18.17.38.17.57.0.15-.03.29-.08.41-.05.12-.13.23-.22.33-.09.09-.21.17-.33.22-.13.05-.26.08-.41.08-.37.0-.67-.17-.89-.51l-3.47-5.56h-2.93v5.03c0 .29-.1.54-.3.74-.21.2-.45.3-.74.3-.29.0-.53-.1-.74-.3C95.26 111.81 95.16 111.57 95.16 111.28zM97.24 98.67v5.5h2.75c.38.0.74-.07 1.07-.22.34-.14.63-.34.87-.59.25-.25.44-.54.59-.88.14-.33.22-.68.22-1.06s-.07-.74-.22-1.07c-.14-.33-.34-.63-.59-.88s-.54-.45-.88-.59c-.33-.15-.69-.22-1.06-.22H97.24z"/><path class="st0" d="M108.94 111.28c0 .29-.1.54-.31.74-.2.2-.45.3-.74.3-.29.0-.54-.1-.74-.3-.2-.2-.3-.45-.3-.74V97.63c0-.29.1-.53.3-.74.2-.2.45-.3.74-.3.29.0.53.1.74.3.2.2.31.45.31.74V111.28z"/><path class="st0" d="M122.19 108.78c.14.0.28.03.4.08.12.06.23.13.33.22.09.09.17.2.23.33s.08.26.08.41c0 .28-.11.52-.33.75-1.46 1.17-3.11 1.75-4.95 1.75-2.18.0-4.03-.77-5.57-2.3-1.53-1.54-2.3-3.39-2.3-5.57.0-2.17.77-4.02 2.3-5.56 1.54-1.54 3.4-2.31 5.57-2.31 1.86.0 3.54.61 5.04 1.84.18.18.28.42.28.72.0.15-.03.29-.08.41-.05.13-.13.23-.22.33-.1.09-.21.17-.33.22-.13.05-.26.08-.41.08-.25.0-.5-.1-.72-.3-.5-.39-1.05-.69-1.65-.9-.6-.21-1.24-.31-1.91-.31-1.6.0-2.97.57-4.1 1.7-1.12 1.12-1.68 2.48-1.68 4.08.0 1.61.56 2.97 1.68 4.09 1.13 1.13 2.5 1.69 4.1 1.69 1.37.0 2.58-.42 3.62-1.27C121.75 108.85 121.96 108.79 122.19 108.78z"/><path class="st0" d="M135.01 111.28c0 .29-.1.54-.31.74-.2.2-.45.3-.74.3-.29.0-.54-.1-.74-.3-.2-.2-.31-.45-.31-.74v-5.78h-7.01v5.78c0 .29-.1.54-.3.74-.21.2-.45.3-.74.3-.29.0-.53-.1-.74-.3-.2-.2-.3-.45-.3-.74V97.63c0-.29.1-.53.3-.74.21-.2.45-.3.74-.3.29.0.54.1.74.3.2.2.3.45.3.74v5.78h7.01v-5.78c0-.29.1-.53.31-.74.2-.2.45-.3.74-.3.29.0.53.1.74.3.2.2.31.45.31.74V111.28z"/></g></g><g><path class="st0" d="M50.67 116.91c.12-.12.27-.18.44-.18.18.0.32.06.44.18s.18.27.18.44-.06.32-.18.44-.27.18-.44.18c-.17.0-.32-.06-.44-.18s-.18-.27-.18-.44C50.49 117.18 50.55 117.03 50.67 116.91zM50.67 119.38c.12-.12.27-.18.44-.18.18.0.33.06.45.18.12.12.18.27.18.44.0.18-.06.32-.18.45-.12.12-.27.18-.45.18-.17.0-.32-.06-.44-.18s-.18-.27-.18-.45C50.49 119.65 50.55 119.5 50.67 119.38z"/></g><path class="st0" d="M53.21 119.3c.13-.13.29-.2.47-.2.19.0.35.06.48.2.13.13.19.29.19.47.0.19-.06.35-.19.48-.13.13-.29.19-.48.19s-.34-.06-.47-.19c-.13-.13-.19-.29-.19-.48C53.01 119.59 53.08 119.43 53.21 119.3z"/><path class="st0" d="M55.82 116.91c.12-.12.27-.18.44-.18.18.0.32.06.44.18s.18.27.18.44-.06.32-.18.44-.27.18-.44.18c-.17.0-.32-.06-.44-.18s-.18-.27-.18-.44C55.63 117.18 55.69 117.03 55.82 116.91zM55.82 119.38c.12-.12.27-.18.44-.18.18.0.33.06.45.18.12.12.18.27.18.44.0.18-.06.32-.18.45-.12.12-.27.18-.45.18-.17.0-.32-.06-.44-.18s-.18-.27-.18-.45C55.63 119.65 55.69 119.5 55.82 119.38z"/><g><path class="st0" d="M58.39 116.91c.12-.12.27-.18.44-.18.18.0.32.06.44.18s.18.27.18.44-.06.32-.18.44-.27.18-.44.18c-.17.0-.32-.06-.44-.18s-.18-.27-.18-.44C58.21 117.18 58.27 117.03 58.39 116.91zM58.39 119.38c.12-.12.27-.18.44-.18.18.0.33.06.45.18.12.12.18.27.18.44.0.18-.06.32-.18.45-.12.12-.27.18-.45.18-.17.0-.32-.06-.44-.18s-.18-.27-.18-.45C58.21 119.65 58.27 119.5 58.39 119.38z"/></g><path class="st0" d="M60.93 119.3c.13-.13.29-.2.47-.2.19.0.35.06.48.2.13.13.19.29.19.47.0.19-.06.35-.19.48-.13.13-.29.19-.48.19s-.34-.06-.47-.19c-.13-.13-.19-.29-.19-.48C60.74 119.59 60.8 119.43 60.93 119.3z"/><path class="st0" d="M63.54 116.91c.12-.12.27-.18.44-.18.18.0.32.06.44.18s.18.27.18.44-.06.32-.18.44-.27.18-.44.18-.32-.06-.44-.18-.18-.27-.18-.44C63.36 117.18 63.42 117.03 63.54 116.91zM63.54 119.38c.12-.12.27-.18.44-.18.18.0.33.06.45.18.12.12.18.27.18.44.0.18-.06.32-.18.45-.12.12-.27.18-.45.18-.17.0-.32-.06-.44-.18s-.18-.27-.18-.45C63.36 119.65 63.42 119.5 63.54 119.38z"/><g><path class="st0" d="M35.22 116.91c.12-.12.27-.18.44-.18.18.0.32.06.44.18s.18.27.18.44-.06.32-.18.44-.27.18-.44.18c-.17.0-.32-.06-.44-.18s-.18-.27-.18-.44C35.04 117.18 35.1 117.03 35.22 116.91zM35.22 119.38c.12-.12.27-.18.44-.18.18.0.33.06.45.18.12.12.18.27.18.44.0.18-.06.32-.18.45-.12.12-.27.18-.45.18-.17.0-.32-.06-.44-.18s-.18-.27-.18-.45C35.04 119.65 35.1 119.5 35.22 119.38z"/></g><path class="st0" d="M37.76 119.3c.13-.13.29-.2.47-.2.19.0.35.06.48.2.13.13.19.29.19.47.0.19-.06.35-.19.48-.13.13-.29.19-.48.19s-.34-.06-.47-.19c-.13-.13-.19-.29-.19-.48C37.56 119.59 37.63 119.43 37.76 119.3z"/><path class="st0" d="M40.37 116.91c.12-.12.27-.18.44-.18.18.0.32.06.44.18s.18.27.18.44-.06.32-.18.44-.27.18-.44.18c-.17.0-.32-.06-.44-.18s-.18-.27-.18-.44C40.19 117.18 40.25 117.03 40.37 116.91zM40.37 119.38c.12-.12.27-.18.44-.18.18.0.33.06.45.18.12.12.18.27.18.44.0.18-.06.32-.18.45-.12.12-.27.18-.45.18-.17.0-.32-.06-.44-.18s-.18-.27-.18-.45C40.19 119.65 40.25 119.5 40.37 119.38z"/><g><path class="st0" d="M42.94 116.91c.12-.12.27-.18.44-.18.18.0.32.06.44.18s.18.27.18.44-.06.32-.18.44-.27.18-.44.18c-.17.0-.32-.06-.44-.18s-.18-.27-.18-.44C42.76 117.18 42.82 117.03 42.94 116.91zM42.94 119.38c.12-.12.27-.18.44-.18.18.0.33.06.45.18.12.12.18.27.18.44.0.18-.06.32-.18.45-.12.12-.27.18-.45.18-.17.0-.32-.06-.44-.18s-.18-.27-.18-.45C42.76 119.65 42.82 119.5 42.94 119.38z"/></g><path class="st0" d="M45.48 119.3c.13-.13.29-.2.47-.2.19.0.35.06.48.2.13.13.19.29.19.47.0.19-.06.35-.19.48-.13.13-.29.19-.48.19s-.34-.06-.47-.19c-.13-.13-.19-.29-.19-.48C45.29 119.59 45.35 119.43 45.48 119.3z"/><path class="st0" d="M48.09 116.91c.12-.12.27-.18.44-.18.18.0.32.06.44.18s.18.27.18.44-.06.32-.18.44-.27.18-.44.18c-.17.0-.32-.06-.44-.18s-.18-.27-.18-.44C47.91 117.18 47.97 117.03 48.09 116.91zM48.09 119.38c.12-.12.27-.18.44-.18.18.0.33.06.45.18.12.12.18.27.18.44.0.18-.06.32-.18.45-.12.12-.27.18-.45.18-.17.0-.32-.06-.44-.18s-.18-.27-.18-.45C47.91 119.65 47.97 119.5 48.09 119.38z"/><g><path class="st0" d="M19.77 116.91c.12-.12.27-.18.44-.18.18.0.32.06.44.18s.18.27.18.44-.06.32-.18.44-.27.18-.44.18-.32-.06-.44-.18-.18-.27-.18-.44C19.59 117.18 19.65 117.03 19.77 116.91zM19.77 119.38c.12-.12.27-.18.44-.18.18.0.33.06.45.18s.18.27.18.44c0 .18-.06.32-.18.45-.12.12-.27.18-.45.18-.17.0-.32-.06-.44-.18s-.18-.27-.18-.45C19.59 119.65 19.65 119.5 19.77 119.38z"/></g><path class="st0" d="M22.31 119.3c.13-.13.29-.2.47-.2.19.0.35.06.48.2.13.13.19.29.19.47.0.19-.06.35-.19.48-.13.13-.29.19-.48.19s-.34-.06-.47-.19-.19-.29-.19-.48C22.12 119.59 22.18 119.43 22.31 119.3z"/><path class="st0" d="M24.92 116.91c.12-.12.27-.18.44-.18.18.0.32.06.44.18s.18.27.18.44-.06.32-.18.44-.27.18-.44.18-.32-.06-.44-.18-.18-.27-.18-.44C24.74 117.18 24.8 117.03 24.92 116.91zM24.92 119.38c.12-.12.27-.18.44-.18.18.0.33.06.45.18s.18.27.18.44c0 .18-.06.32-.18.45-.12.12-.27.18-.45.18-.17.0-.32-.06-.44-.18s-.18-.27-.18-.45C24.74 119.65 24.8 119.5 24.92 119.38z"/><g><path class="st0" d="M27.49 116.91c.12-.12.27-.18.44-.18.18.0.32.06.44.18s.18.27.18.44-.06.32-.18.44-.27.18-.44.18-.32-.06-.44-.18-.18-.27-.18-.44C27.31 117.18 27.37 117.03 27.49 116.91zM27.49 119.38c.12-.12.27-.18.44-.18.18.0.33.06.45.18s.18.27.18.44c0 .18-.06.32-.18.45-.12.12-.27.18-.45.18-.17.0-.32-.06-.44-.18s-.18-.27-.18-.45C27.31 119.65 27.37 119.5 27.49 119.38z"/></g><path class="st0" d="M30.04 119.3c.13-.13.29-.2.47-.2.19.0.35.06.48.2.13.13.19.29.19.47.0.19-.06.35-.19.48-.13.13-.29.19-.48.19s-.34-.06-.47-.19-.19-.29-.19-.48C29.84 119.59 29.91 119.43 30.04 119.3z"/><path class="st0" d="M32.64 116.91c.12-.12.27-.18.44-.18.18.0.32.06.44.18s.18.27.18.44-.06.32-.18.44-.27.18-.44.18c-.17.0-.32-.06-.44-.18s-.18-.27-.18-.44C32.46 117.18 32.52 117.03 32.64 116.91zM32.64 119.38c.12-.12.27-.18.44-.18.18.0.33.06.45.18.12.12.18.27.18.44.0.18-.06.32-.18.45-.12.12-.27.18-.45.18-.17.0-.32-.06-.44-.18s-.18-.27-.18-.45C32.46 119.65 32.52 119.5 32.64 119.38z"/><g><path class="st1" d="M121.06 116.91c.12-.12.27-.18.44-.18.18.0.32.06.44.18s.18.27.18.44-.06.32-.18.44-.27.18-.44.18-.32-.06-.44-.18-.18-.27-.18-.44C120.88 117.18 120.94 117.03 121.06 116.91zM121.06 119.38c.12-.12.27-.18.44-.18.18.0.33.06.45.18s.18.27.18.44c0 .18-.06.32-.18.45-.12.12-.27.18-.45.18-.17.0-.32-.06-.44-.18s-.18-.27-.18-.45C120.88 119.65 120.94 119.5 121.06 119.38z"/></g><path class="st1" d="M123.6 119.3c.13-.13.29-.2.47-.2.19.0.35.06.48.2.13.13.19.29.19.47.0.19-.06.35-.19.48-.13.13-.29.19-.48.19s-.34-.06-.47-.19-.19-.29-.19-.48C123.4 119.59 123.47 119.43 123.6 119.3z"/><path class="st1" d="M126.21 116.91c.12-.12.27-.18.44-.18.18.0.32.06.44.18s.18.27.18.44-.06.32-.18.44-.27.18-.44.18-.32-.06-.44-.18-.18-.27-.18-.44C126.03 117.18 126.09 117.03 126.21 116.91zM126.21 119.38c.12-.12.27-.18.44-.18.18.0.33.06.45.18s.18.27.18.44c0 .18-.06.32-.18.45-.12.12-.27.18-.45.18-.17.0-.32-.06-.44-.18s-.18-.27-.18-.45C126.03 119.65 126.09 119.5 126.21 119.38z"/><g><path class="st1" d="M128.78 116.91c.12-.12.27-.18.44-.18.18.0.32.06.44.18s.18.27.18.44-.06.32-.18.44-.27.18-.44.18-.32-.06-.44-.18-.18-.27-.18-.44C128.6 117.18 128.66 117.03 128.78 116.91zM128.78 119.38c.12-.12.27-.18.44-.18.18.0.33.06.45.18.12.12.18.27.18.44.0.18-.06.32-.18.45-.12.12-.27.18-.45.18-.17.0-.32-.06-.44-.18s-.18-.27-.18-.45C128.6 119.65 128.66 119.5 128.78 119.38z"/></g><path class="st1" d="M131.32 119.3c.13-.13.29-.2.47-.2.19.0.35.06.48.2.13.13.19.29.19.47.0.19-.06.35-.19.48-.13.13-.29.19-.48.19s-.34-.06-.47-.19-.19-.29-.19-.48C131.13 119.59 131.19 119.43 131.32 119.3z"/><path class="st1" d="M133.93 116.91c.12-.12.27-.18.44-.18.18.0.32.06.44.18s.18.27.18.44-.06.32-.18.44-.27.18-.44.18-.32-.06-.44-.18-.18-.27-.18-.44C133.75 117.18 133.81 117.03 133.93 116.91zM133.93 119.38c.12-.12.27-.18.44-.18.18.0.33.06.45.18.12.12.18.27.18.44.0.18-.06.32-.18.45-.12.12-.27.18-.45.18-.17.0-.32-.06-.44-.18s-.18-.27-.18-.45C133.75 119.65 133.81 119.5 133.93 119.38z"/><g><path class="st1" d="M105.61 116.91c.12-.12.27-.18.44-.18.18.0.32.06.44.18s.18.27.18.44-.06.32-.18.44-.27.18-.44.18-.32-.06-.44-.18-.18-.27-.18-.44C105.43 117.18 105.49 117.03 105.61 116.91zM105.61 119.38c.12-.12.27-.18.44-.18.18.0.33.06.45.18s.18.27.18.44c0 .18-.06.32-.18.45-.12.12-.27.18-.45.18-.17.0-.32-.06-.44-.18s-.18-.27-.18-.45C105.43 119.65 105.49 119.5 105.61 119.38z"/></g><path class="st1" d="M108.15 119.3c.13-.13.29-.2.47-.2.19.0.35.06.48.2.13.13.19.29.19.47.0.19-.06.35-.19.48-.13.13-.29.19-.48.19s-.34-.06-.47-.19-.19-.29-.19-.48C107.96 119.59 108.02 119.43 108.15 119.3z"/><path class="st1" d="M110.76 116.91c.12-.12.27-.18.44-.18.18.0.32.06.44.18s.18.27.18.44-.06.32-.18.44-.27.18-.44.18-.32-.06-.44-.18-.18-.27-.18-.44C110.58 117.18 110.64 117.03 110.76 116.91zM110.76 119.38c.12-.12.27-.18.44-.18.18.0.33.06.45.18s.18.27.18.44c0 .18-.06.32-.18.45-.12.12-.27.18-.45.18-.17.0-.32-.06-.44-.18s-.18-.27-.18-.45C110.58 119.65 110.64 119.5 110.76 119.38z"/><g><path class="st1" d="M113.34 116.91c.12-.12.27-.18.44-.18.18.0.32.06.44.18s.18.27.18.44-.06.32-.18.44-.27.18-.44.18-.32-.06-.44-.18-.18-.27-.18-.44C113.16 117.18 113.22 117.03 113.34 116.91zM113.34 119.38c.12-.12.27-.18.44-.18.18.0.33.06.45.18s.18.27.18.44c0 .18-.06.32-.18.45-.12.12-.27.18-.45.18-.17.0-.32-.06-.44-.18s-.18-.27-.18-.45C113.16 119.65 113.22 119.5 113.34 119.38z"/></g><path class="st1" d="M115.88 119.3c.13-.13.29-.2.47-.2.19.0.35.06.48.2.13.13.19.29.19.47.0.19-.06.35-.19.48-.13.13-.29.19-.48.19s-.34-.06-.47-.19-.19-.29-.19-.48C115.68 119.59 115.75 119.43 115.88 119.3z"/><path class="st1" d="M118.48 116.91c.12-.12.27-.18.44-.18.18.0.32.06.44.18s.18.27.18.44-.06.32-.18.44-.27.18-.44.18-.32-.06-.44-.18-.18-.27-.18-.44C118.3 117.18 118.36 117.03 118.48 116.91zM118.48 119.38c.12-.12.27-.18.44-.18.18.0.33.06.45.18s.18.27.18.44c0 .18-.06.32-.18.45-.12.12-.27.18-.45.18-.17.0-.32-.06-.44-.18s-.18-.27-.18-.45C118.3 119.65 118.36 119.5 118.48 119.38z"/><g><path class="st1" d="M90.16 116.91c.12-.12.27-.18.44-.18.18.0.32.06.44.18s.18.27.18.44-.06.32-.18.44-.27.18-.44.18-.32-.06-.44-.18-.18-.27-.18-.44C89.98 117.18 90.04 117.03 90.16 116.91zM90.16 119.38c.12-.12.27-.18.44-.18.18.0.33.06.45.18s.18.27.18.44c0 .18-.06.32-.18.45-.12.12-.27.18-.45.18-.17.0-.32-.06-.44-.18s-.18-.27-.18-.45C89.98 119.65 90.04 119.5 90.16 119.38z"/></g><path class="st1" d="M92.7 119.3c.13-.13.29-.2.47-.2.19.0.35.06.48.2.13.13.19.29.19.47.0.19-.06.35-.19.48-.13.13-.29.19-.48.19s-.34-.06-.47-.19-.19-.29-.19-.48C92.51 119.59 92.58 119.43 92.7 119.3z"/><path class="st1" d="M95.31 116.91c.12-.12.27-.18.44-.18.18.0.32.06.44.18s.18.27.18.44-.06.32-.18.44-.27.18-.44.18-.32-.06-.44-.18-.18-.27-.18-.44C95.13 117.18 95.19 117.03 95.31 116.91zM95.31 119.38c.12-.12.27-.18.44-.18.18.0.33.06.45.18s.18.27.18.44c0 .18-.06.32-.18.45-.12.12-.27.18-.45.18-.17.0-.32-.06-.44-.18s-.18-.27-.18-.45C95.13 119.65 95.19 119.5 95.31 119.38z"/><g><path class="st1" d="M97.89 116.91c.12-.12.27-.18.44-.18.18.0.32.06.44.18s.18.27.18.44-.06.32-.18.44-.27.18-.44.18-.32-.06-.44-.18-.18-.27-.18-.44C97.71 117.18 97.77 117.03 97.89 116.91zM97.89 119.38c.12-.12.27-.18.44-.18.18.0.33.06.45.18s.18.27.18.44c0 .18-.06.32-.18.45-.12.12-.27.18-.45.18-.17.0-.32-.06-.44-.18s-.18-.27-.18-.45C97.71 119.65 97.77 119.5 97.89 119.38z"/></g><path class="st1" d="M100.43 119.3c.13-.13.29-.2.47-.2.19.0.35.06.48.2.13.13.19.29.19.47.0.19-.06.35-.19.48-.13.13-.29.19-.48.19s-.34-.06-.47-.19-.19-.29-.19-.48C100.23 119.59 100.3 119.43 100.43 119.3z"/><path class="st1" d="M103.04 116.91c.12-.12.27-.18.44-.18.18.0.32.06.44.18s.18.27.18.44-.06.32-.18.44-.27.18-.44.18-.32-.06-.44-.18-.18-.27-.18-.44C102.86 117.18 102.92 117.03 103.04 116.91zM103.04 119.38c.12-.12.27-.18.44-.18.18.0.33.06.45.18s.18.27.18.44c0 .18-.06.32-.18.45-.12.12-.27.18-.45.18-.17.0-.32-.06-.44-.18s-.18-.27-.18-.45C102.86 119.65 102.92 119.5 103.04 119.38z"/><path class="st1" d="M139.61 17.05c-1.7-2.31-4.28-4.04-7.07-4.76-.06-.01-.12-.02-.18-.02-.44.0-.87.31-.96.74-.11.29-.08.59.06.85.13.25.35.42.59.46 2.96.77 5.51 2.86 6.84 5.59 1.1 2.24 1.38 4.9.77 7.3-.06.25.0.53.15.75.16.23.39.38.65.41.52.15 1.09-.14 1.25-.61C142.65 24.17 141.85 20.05 139.61 17.05z"/><path class="st1" d="M135.47 26.69c.16.25.4.41.68.46.27.08.54.05.78-.08s.41-.34.48-.57c.62-2.25.15-4.83-1.23-6.7-1.17-1.57-2.86-2.67-4.63-3.02-.06-.01-.11-.02-.16-.02-.39.0-.64.28-.74.41-.26.34-.32.8-.15 1.13.13.28.41.5.75.58 1.59.42 2.95 1.51 3.66 2.94.64 1.26.79 2.73.44 4.13C135.28 26.19 135.32 26.46 135.47 26.69z"/></svg>